<svg width="171" height="170" viewBox="0 0 171 170" fill="none" xmlns="http://www.w3.org/2000/svg">
<g id="Frame">
<g id="Group">
<g id="29-Metabolism">
<path id="Vector" d="M114.719 114.219C114.719 103.594 109.406 79.6875 109.406 79.6875C109.406 79.6875 114.002 67.6016 114.719 34.5312V15.9375H19.0938V34.5312C19.8109 67.6016 24.4062 79.6875 24.4062 79.6875C24.4062 79.6875 19.0938 103.594 19.0938 114.219C19.0938 114.219 13.7812 124.844 13.7812 146.094H120.031C120.031 124.844 114.719 114.219 114.719 114.219Z" fill="#FFCCBC"/>
<path id="Vector_2" d="M114.719 114.219C114.719 103.594 109.406 79.6875 109.406 79.6875C109.406 79.6875 114.002 67.6016 114.719 34.5312V15.9375H106.75V34.5312C106.033 67.6016 101.438 79.6875 101.438 79.6875C101.438 79.6875 106.75 103.594 106.75 114.219C106.75 114.219 112.062 124.844 112.062 146.094H120.031C120.031 124.844 114.719 114.219 114.719 114.219Z" fill="#FFAB91"/>
<path id="Vector_3" d="M120.031 146.094H13.7812C13.7812 124.844 19.0938 114.219 19.0938 114.219C19.0938 114.219 35.9609 122.188 66.9062 122.188C97.8516 122.188 114.719 114.219 114.719 114.219C114.719 114.219 120.031 124.844 120.031 146.094Z" fill="#757575"/>
<path id="Vector_4" d="M85.5 63.75C87.6128 63.7479 89.6385 62.9077 91.1324 61.4137C92.6264 59.9197 93.4666 57.894 93.4688 55.7812C93.4688 55.0768 93.1889 54.4011 92.6908 53.903C92.1926 53.4049 91.517 53.125 90.8125 53.125C90.108 53.125 89.4324 53.4049 88.9342 53.903C88.4361 54.4011 88.1562 55.0768 88.1562 55.7812C88.1555 56.4855 87.8755 57.1607 87.3775 57.6587C86.8795 58.1567 86.2043 58.4368 85.5 58.4375H69.5625V50.4688C69.5625 49.7643 69.2826 49.0886 68.7845 48.5905C68.2864 48.0924 67.6107 47.8125 66.9062 47.8125C66.2018 47.8125 65.5261 48.0924 65.028 48.5905C64.5299 49.0886 64.25 49.7643 64.25 50.4688V58.4375H48.3125C47.6082 58.4368 46.933 58.1567 46.435 57.6587C45.937 57.1607 45.657 56.4855 45.6562 55.7812C45.6562 55.0768 45.3764 54.4011 44.8783 53.903C44.3801 53.4049 43.7045 53.125 43 53.125C42.2955 53.125 41.6199 53.4049 41.1217 53.903C40.6236 54.4011 40.3438 55.0768 40.3438 55.7812C40.3459 57.894 41.1861 59.9197 42.6801 61.4137C44.174 62.9077 46.1997 63.7479 48.3125 63.75H64.25V77.0312H50.9688C50.2645 77.0305 49.5893 76.7505 49.0913 76.2525C48.5933 75.7545 48.3132 75.0793 48.3125 74.375C48.3125 73.6705 48.0326 72.9949 47.5345 72.4967C47.0364 71.9986 46.3607 71.7188 45.6562 71.7188C44.9518 71.7188 44.2761 71.9986 43.778 72.4967C43.2799 72.9949 43 73.6705 43 74.375C43.0021 76.4878 43.8423 78.5135 45.3363 80.0074C46.8303 81.5014 48.856 82.3416 50.9688 82.3438H64.25V95.625H53.625C52.9207 95.6243 52.2455 95.3442 51.7475 94.8462C51.2495 94.3482 50.9695 93.673 50.9688 92.9688C50.9688 92.2643 50.6889 91.5886 50.1908 91.0905C49.6926 90.5924 49.017 90.3125 48.3125 90.3125C47.608 90.3125 46.9324 90.5924 46.4342 91.0905C45.9361 91.5886 45.6562 92.2643 45.6562 92.9688C45.6584 95.0815 46.4986 97.1072 47.9926 98.6012C49.4865 100.095 51.5122 100.935 53.625 100.938H64.25V108.906C64.25 109.611 64.5299 110.286 65.028 110.785C65.5261 111.283 66.2018 111.562 66.9062 111.562C67.6107 111.562 68.2864 111.283 68.7845 110.785C69.2826 110.286 69.5625 109.611 69.5625 108.906V100.938H80.1875C82.3003 100.935 84.326 100.095 85.8199 98.6012C87.3139 97.1072 88.1541 95.0815 88.1562 92.9688C88.1562 92.2643 87.8764 91.5886 87.3783 91.0905C86.8801 90.5924 86.2045 90.3125 85.5 90.3125C84.7955 90.3125 84.1199 90.5924 83.6217 91.0905C83.1236 91.5886 82.8438 92.2643 82.8438 92.9688C82.843 93.673 82.563 94.3482 82.065 94.8462C81.567 95.3442 80.8918 95.6243 80.1875 95.625H69.5625V82.3438H82.8438C84.9565 82.3416 86.9822 81.5014 88.4762 80.0074C89.9701 78.5135 90.8104 76.4878 90.8125 74.375C90.8125 73.6705 90.5326 72.9949 90.0345 72.4967C89.5364 71.9986 88.8607 71.7188 88.1562 71.7188C87.4518 71.7188 86.7761 71.9986 86.278 72.4967C85.7799 72.9949 85.5 73.6705 85.5 74.375C85.4993 75.0793 85.2192 75.7545 84.7212 76.2525C84.2232 76.7505 83.548 77.0305 82.8438 77.0312H69.5625V63.75H85.5Z" fill="#FFAB91"/>
<path id="Vector_5" d="M69.5625 146.094V138.125C69.5625 137.421 69.2826 136.745 68.7845 136.247C68.2864 135.749 67.6107 135.469 66.9062 135.469C66.2018 135.469 65.5261 135.749 65.028 136.247C64.5299 136.745 64.25 137.421 64.25 138.125V146.094H69.5625Z" fill="#616161"/>
<path id="Vector_6" d="M120.031 159.375C142.036 159.375 159.875 141.536 159.875 119.531C159.875 97.5262 142.036 79.6875 120.031 79.6875C98.0262 79.6875 80.1875 97.5262 80.1875 119.531C80.1875 141.536 98.0262 159.375 120.031 159.375Z" fill="#EEEEEE"/>
<path id="Vector_7" d="M120.031 79.6875C117.805 79.7012 115.584 79.9011 113.391 80.2852C122.672 81.8443 131.101 86.6424 137.18 93.8275C143.258 101.013 146.594 110.12 146.594 119.531C146.594 128.943 143.258 138.05 137.18 145.235C131.101 152.42 122.672 157.218 113.391 158.777C118.825 159.699 124.392 159.482 129.739 158.141C135.085 156.8 140.095 154.363 144.451 150.986C148.807 147.608 152.415 143.363 155.046 138.519C157.676 133.675 159.273 128.338 159.734 122.845C160.195 117.352 159.511 111.823 157.725 106.608C155.939 101.393 153.09 96.6062 149.358 92.5495C145.626 88.4928 141.092 85.255 136.044 83.041C130.996 80.8271 125.543 79.6851 120.031 79.6875Z" fill="#E0E0E0"/>
<path id="Vector_8" d="M138.625 108.906C137.001 112.426 134.176 115.251 130.656 116.875C130.651 94.6847 112.062 92.9688 112.062 92.9688C114.487 96.6347 115.549 101.035 115.063 105.403C114.578 109.771 112.576 113.831 109.406 116.875C105.881 115.259 103.054 112.431 101.437 108.906C97.8399 113.425 95.9579 119.071 96.125 124.844C96.3923 130.544 98.2309 136.06 101.437 140.781H138.625C141.832 136.06 143.67 130.544 143.937 124.844C144.105 119.071 142.223 113.425 138.625 108.906Z" fill="#EF5350"/>
<path id="Vector_9" d="M114.134 97.1391C118.517 100.459 122.688 103.458 122.688 119.531C125.429 118.926 128.1 118.036 130.656 116.875C130.651 94.6847 112.062 92.9688 112.062 92.9688C112.882 94.2836 113.562 95.6804 114.092 97.1364L114.134 97.1391ZM143.938 124.844C143.668 130.544 141.829 136.059 138.625 140.781H130.656C133.861 136.059 135.699 130.544 135.969 124.844C135.979 121.43 135.357 118.044 134.136 114.856C136.003 113.182 137.528 111.162 138.625 108.906C142.225 113.423 144.107 119.07 143.938 124.844Z" fill="#E53935"/>
<path id="Vector_10" d="M117.375 122.188C118.134 123.856 118.527 125.667 118.527 127.5C118.527 129.333 118.134 131.144 117.375 132.812C115.335 132.62 113.441 131.672 112.063 130.156C111.304 131.825 110.911 133.636 110.911 135.469C110.911 137.302 111.304 139.113 112.063 140.781H128C133.313 124.844 117.375 122.188 117.375 122.188Z" fill="#FFB74D"/>
<path id="Vector_11" d="M128 140.781H120.031C122.183 134.327 120.855 130.077 118.517 127.261C118.472 125.511 118.083 123.788 117.375 122.188C117.375 122.188 133.312 124.844 128 140.781Z" fill="#FFB74D"/>
<path id="Vector_12" d="M8.46875 7.96875L12.8702 24.472C13.6843 27.5256 15.0959 30.3875 17.0232 32.8921C18.9505 35.3967 21.3552 37.4944 24.0983 39.0637C26.8415 40.633 29.8685 41.6428 33.0044 42.0348C36.1403 42.4267 39.3228 42.193 42.3678 41.3472L57.1791 37.2327C59.9759 36.4559 62.4412 34.7843 64.1979 32.4735C65.9546 30.1628 66.9059 27.3402 66.9062 24.4375C66.9066 27.3402 67.8579 30.1628 69.6146 32.4735C71.3713 34.7843 73.8366 36.4559 76.6334 37.2327L91.4447 41.3498C94.4899 42.1956 97.6725 42.4292 100.809 42.0371C103.945 41.645 106.972 40.6349 109.715 39.0653C112.458 37.4958 114.863 35.3979 116.79 32.893C118.717 30.3881 120.128 27.5259 120.942 24.472L125.344 7.96875H8.46875Z" fill="#FFCCBC"/>
<path id="Vector_13" d="M32.375 29.2188C33.842 29.2188 35.0312 28.0295 35.0312 26.5625C35.0312 25.0955 33.842 23.9062 32.375 23.9062C30.908 23.9062 29.7188 25.0955 29.7188 26.5625C29.7188 28.0295 30.908 29.2188 32.375 29.2188Z" fill="#A1887F"/>
<path id="Vector_14" d="M101.438 29.2188C102.905 29.2188 104.094 28.0295 104.094 26.5625C104.094 25.0955 102.905 23.9062 101.438 23.9062C99.9705 23.9062 98.7812 25.0955 98.7812 26.5625C98.7812 28.0295 99.9705 29.2188 101.438 29.2188Z" fill="#A1887F"/>
<path id="Vector_15" d="M157.606 99.6941C157.277 99.0714 156.713 98.6051 156.04 98.3979C155.366 98.1906 154.638 98.2594 154.015 98.5891C153.392 98.9188 152.926 99.4824 152.719 100.156C152.512 100.829 152.58 101.558 152.91 102.18C155.753 107.521 157.233 113.481 157.219 119.531C157.207 129.39 153.286 138.843 146.314 145.814C139.343 152.786 129.89 156.707 120.031 156.718C111.721 156.735 103.652 153.925 97.1501 148.75H101.437C102.142 148.75 102.817 148.47 103.316 147.972C103.814 147.474 104.094 146.798 104.094 146.093C104.094 145.389 103.814 144.713 103.316 144.215C102.817 143.717 102.142 143.437 101.437 143.437H90.8123C90.1078 143.437 89.4322 143.717 88.9341 144.215C88.4359 144.713 88.1561 145.389 88.1561 146.093V156.718C88.1561 157.423 88.4359 158.099 88.9341 158.597C89.4322 159.095 90.1078 159.375 90.8123 159.375C91.5168 159.375 92.1924 159.095 92.6906 158.597C93.1887 158.099 93.4686 157.423 93.4686 156.718V152.58C101.075 158.713 110.565 162.033 120.336 161.98C130.107 161.926 139.56 158.502 147.099 152.286C154.638 146.07 159.8 137.442 161.714 127.86C163.629 118.279 162.178 108.33 157.606 99.6941ZM82.8436 119.531C82.8203 112.559 84.7637 105.723 88.4506 99.8056C92.1374 93.8886 97.4184 89.1314 103.687 86.0802C109.955 83.029 116.957 81.8076 123.889 82.5562C130.82 83.3048 137.4 85.993 142.872 90.3123H138.625C137.92 90.3123 137.245 90.5921 136.747 91.0902C136.248 91.5884 135.969 92.264 135.969 92.9685C135.969 93.673 136.248 94.3486 136.747 94.8468C137.245 95.3449 137.92 95.6248 138.625 95.6248H149.25C149.954 95.6248 150.63 95.3449 151.128 94.8468C151.626 94.3486 151.906 93.673 151.906 92.9685V82.3435C151.906 81.639 151.626 80.9634 151.128 80.4652C150.63 79.9671 149.954 79.6873 149.25 79.6873C148.545 79.6873 147.87 79.9671 147.372 80.4652C146.873 80.9634 146.594 81.639 146.594 82.3435V86.4926C138.989 80.3574 129.499 77.0353 119.728 77.0875C109.957 77.1398 100.504 80.5631 92.9649 86.7793C85.426 92.9954 80.2639 101.623 78.3506 111.205C76.4374 120.787 77.8902 130.736 82.4637 139.371C82.7941 139.993 83.3583 140.459 84.032 140.665C84.7057 140.872 85.4339 140.802 86.0563 140.472C86.6787 140.141 87.1444 139.577 87.3509 138.903C87.5573 138.23 87.4877 137.501 87.1573 136.879C84.3073 131.542 82.8252 125.581 82.8436 119.531Z" fill="#64B5F6"/>
<path id="Vector_16" d="M118.615 7.96875L115.17 20.8781C114.428 23.6639 113.126 26.2695 111.344 28.5361C109.562 30.8028 107.338 32.6831 104.806 34.0627C102.274 35.4424 99.4885 36.2924 96.6179 36.5611C93.7474 36.8298 90.8521 36.5115 88.1084 35.6256L76.6308 31.9202C73.8345 31.1429 71.3697 29.4711 69.6136 27.1604C67.8574 24.8497 66.9065 22.0273 66.9062 19.125V24.4375C66.9066 27.3402 67.8579 30.1628 69.6146 32.4735C71.3713 34.7843 73.8366 36.4559 76.6334 37.2327L91.4447 41.3498C94.4899 42.1956 97.6725 42.4292 100.809 42.0371C103.945 41.645 106.972 40.6349 109.715 39.0653C112.458 37.4958 114.863 35.3979 116.79 32.893C118.717 30.3881 120.128 27.5259 120.942 24.472L125.344 7.96875H118.615Z" fill="#FFAB91"/>
<path id="Vector_17" d="M66.9062 19.125V24.4375C66.907 27.3406 65.9569 30.1641 64.2012 32.4762C62.4456 34.7883 59.981 36.4617 57.1843 37.2406L42.3624 41.3578C36.5335 42.9765 30.3073 42.3218 24.9426 39.5261C19.5778 36.7303 15.4746 32.0019 13.4624 26.2969C18.589 33.9734 30.2605 40.3166 45.7093 35.6203L57.1843 31.9281C59.981 31.1492 62.4456 29.4758 64.2012 27.1637C65.9569 24.8516 66.907 22.0281 66.9062 19.125Z" fill="#FFAB91"/>
</g>
</g>
</g>
</svg>
