<svg width="336" height="169" viewBox="0 0 336 169" fill="none" xmlns="http://www.w3.org/2000/svg">
<path d="M4 168.5C1.79086 168.5 -0.0049469 166.709 0.0473335 164.5C0.538881 143.735 4.85448 123.229 12.7882 104.018C21.231 83.5745 33.6058 64.9992 49.2061 49.3525C64.8063 33.7058 83.3265 21.2942 103.709 12.8263C124.092 4.35838 145.938 -2.9017e-06 168 0C190.062 2.9017e-06 211.908 4.35839 232.291 12.8263C252.674 21.2942 271.194 33.7059 286.794 49.3525C302.394 64.9992 314.769 83.5745 323.212 104.018C331.146 123.229 335.461 143.736 335.953 164.5C336.005 166.709 334.209 168.5 332 168.5H314.8C312.591 168.5 310.806 166.709 310.744 164.5C310.258 147.055 306.597 129.834 299.93 113.69C292.754 96.3133 282.235 80.5243 268.975 67.2246C255.715 53.925 239.973 43.3751 222.647 36.1774C205.322 28.9796 186.753 25.275 168 25.275C149.247 25.275 130.678 28.9796 113.353 36.1773C96.0275 43.3751 80.2854 53.9249 67.0252 67.2246C53.765 80.5243 43.2464 96.3133 36.07 113.69C29.4027 129.834 25.7416 147.055 25.2557 164.5C25.1942 166.709 23.4091 168.5 21.2 168.5H4Z" fill="url(#paint0_linear_1570_11867)"/>
<defs>
<linearGradient id="paint0_linear_1570_11867" x1="8.5" y1="169" x2="328.5" y2="169" gradientUnits="userSpaceOnUse">
<stop stop-color="#1BB1E8"/>
<stop offset="0.1" stop-color="#39AE4B"/>
<stop offset="0.7" stop-color="#FFC600"/>
<stop offset="0.8" stop-color="#D19000"/>
<stop offset="1" stop-color="#F9423A"/>
</linearGradient>
</defs>
</svg>
