<svg width="170" height="170" viewBox="0 0 170 170" fill="none" xmlns="http://www.w3.org/2000/svg">
<g id="Frame">
<g id="Group">
<g id="Group_2">
<path id="Vector" d="M131.956 131.956C119.414 144.499 102.738 151.406 84.9999 151.406C49.2733 151.406 20.0513 123.046 18.6514 87.6562H23.9062C24.4313 87.656 24.9447 87.5 25.3813 87.2081C25.8179 86.9162 26.1582 86.5015 26.3592 86.0163C26.5602 85.5311 26.613 84.9972 26.5107 84.4821C26.4085 83.967 26.1559 83.4937 25.7848 83.122L17.816 75.1533C17.5694 74.9066 17.2765 74.7109 16.9543 74.5774C16.632 74.4439 16.2866 74.3752 15.9377 74.3752C15.5889 74.3752 15.2435 74.4439 14.9212 74.5774C14.5989 74.7109 14.3061 74.9066 14.0594 75.1533L6.09068 83.122C5.71915 83.4934 5.46612 83.9667 5.36358 84.4819C5.26104 84.9972 5.31361 85.5313 5.51464 86.0166C5.71566 86.502 6.05612 86.9168 6.49293 87.2087C6.92975 87.5005 7.44331 87.6563 7.96865 87.6562H13.3346C13.9917 105.816 21.3694 122.795 34.2871 135.713C47.8333 149.259 65.8434 156.719 84.9999 156.719C104.156 156.719 122.167 149.259 135.713 135.713C136.211 135.215 136.491 134.539 136.491 133.835C136.491 133.13 136.211 132.455 135.713 131.957C135.466 131.71 135.173 131.514 134.851 131.381C134.529 131.247 134.183 131.178 133.834 131.178C133.486 131.178 133.14 131.247 132.818 131.38C132.496 131.514 132.203 131.71 131.956 131.956ZM164.485 83.9833C164.284 83.498 163.944 83.0833 163.507 82.7915C163.07 82.4996 162.556 82.3438 162.031 82.3438H156.665C156.008 64.1836 148.63 47.2049 135.713 34.2872C122.167 20.7413 104.156 13.2812 84.9999 13.2812C65.8434 13.2812 47.833 20.7413 34.2871 34.2872C34.038 34.5333 33.84 34.8263 33.7046 35.1492C33.5691 35.4721 33.4988 35.8186 33.4978 36.1688C33.4967 36.519 33.5649 36.8659 33.6985 37.1896C33.832 37.5134 34.0282 37.8075 34.2758 38.0551C34.5235 38.3027 34.8176 38.4989 35.1413 38.6324C35.4651 38.7659 35.812 38.8341 36.1622 38.833C36.5124 38.8319 36.8589 38.7616 37.1818 38.6261C37.5047 38.4906 37.7976 38.2926 38.0437 38.0435C50.5862 25.5013 67.2621 18.5938 84.9999 18.5938C120.726 18.5938 149.949 46.9542 151.348 82.3438H146.094C145.568 82.344 145.055 82.5 144.619 82.7919C144.182 83.0837 143.842 83.4985 143.641 83.9837C143.44 84.4689 143.387 85.0028 143.489 85.5179C143.591 86.033 143.844 86.5063 144.215 86.878L152.184 94.8467C152.703 95.3654 153.382 95.6247 154.062 95.6247C154.742 95.6247 155.422 95.3654 155.94 94.8467L163.909 86.878C164.281 86.5066 164.534 86.0333 164.636 85.5181C164.739 85.0028 164.686 84.4687 164.485 83.9833Z" fill="#5AD7FF"/>
</g>
<path id="Vector_2" d="M161.253 45.9342L158.597 43.2779C158.099 42.7799 157.423 42.5 156.719 42.5H100.937V55.7812H144.766C146.966 55.7812 148.75 53.9972 148.75 51.7969V47.8125H155.619L157.497 49.6908C158.016 50.2094 158.695 50.4688 159.375 50.4688C160.055 50.4688 160.735 50.2094 161.253 49.6908C161.5 49.4441 161.696 49.1513 161.829 48.829C161.963 48.5068 162.031 48.1613 162.031 47.8125C162.031 47.4637 161.963 47.1182 161.829 46.796C161.696 46.4737 161.5 46.1809 161.253 45.9342ZM13.2812 42.5C12.5767 42.5 11.9011 42.7799 11.4029 43.2779L8.74663 45.9342C8.24856 46.4323 7.96875 47.1079 7.96875 47.8123C7.96875 48.5168 8.24856 49.1923 8.74663 49.6905C9.26526 50.2094 9.94493 50.4688 10.6249 50.4688C11.3049 50.4688 11.9846 50.2094 12.5032 49.6908L14.3812 47.8125H21.2499V51.7969C21.2499 53.9972 23.0339 55.7812 25.2343 55.7812H69.0624V42.5H13.2812Z" fill="#F0915A"/>
<path id="Vector_3" d="M90.3125 37.1875H79.6875C75.2864 37.1875 71.7188 33.6198 71.7188 29.2188V13.2812C71.7188 8.88018 75.2864 5.3125 79.6875 5.3125H90.3125C94.7136 5.3125 98.2812 8.88018 98.2812 13.2812V29.2188C98.2812 33.6198 94.7136 37.1875 90.3125 37.1875Z" fill="#FAB991"/>
<path id="Vector_4" d="M79.6875 37.1875H90.3125V42.5H79.6875V37.1875Z" fill="#F0915A"/>
<path id="Vector_5" d="M106.25 106.25H63.75V47.8125C63.75 44.8783 66.1283 42.5 69.0625 42.5H100.938C103.872 42.5 106.25 44.8783 106.25 47.8125V106.25Z" fill="#FAB991"/>
<path id="Vector_6" d="M63.75 106.25H79.6875V156.719H63.75V106.25ZM90.3125 106.25H106.25V156.719H90.3125V106.25Z" fill="#F0915A"/>
<path id="Vector_7" d="M63.75 90.3125V114.219H79.6875V106.25H85V90.3125H63.75Z" fill="#555A6E"/>
<path id="Vector_8" d="M85 90.3125V106.25H90.3125V114.219H106.25V90.3125H85Z" fill="#463C4B"/>
<path id="Vector_9" d="M62.4219 156.719H79.6875V160.703C79.6875 162.903 77.9035 164.688 75.7031 164.688H62.4219C60.2215 164.688 58.4375 162.903 58.4375 160.703C58.4375 158.503 60.2215 156.719 62.4219 156.719ZM107.578 156.719H90.3125V160.703C90.3125 162.903 92.0965 164.688 94.2969 164.688H107.578C109.778 164.688 111.562 162.903 111.562 160.703C111.562 158.503 109.778 156.719 107.578 156.719ZM27.7585 47.8125H18.5938C17.8893 47.8125 17.2136 48.0924 16.7155 48.5905C16.2174 49.0886 15.9375 49.7643 15.9375 50.4688C15.9375 51.1732 16.2174 51.8489 16.7155 52.347C17.2136 52.8451 17.8893 53.125 18.5938 53.125H21.4814C22.0289 54.6716 23.5002 55.7812 25.2344 55.7812H27.8906C30.1159 55.7812 31.9152 53.9567 31.8743 51.7222C31.8342 49.5288 29.9522 47.8125 27.7585 47.8125ZM142.242 47.8125H151.406C152.111 47.8125 152.786 48.0924 153.285 48.5905C153.783 49.0886 154.062 49.7643 154.062 50.4688C154.062 51.1732 153.783 51.8489 153.285 52.347C152.786 52.8451 152.111 53.125 151.406 53.125H148.519C147.971 54.6716 146.5 55.7812 144.766 55.7812H142.109C139.884 55.7812 138.085 53.9567 138.126 51.7222C138.166 49.5288 140.048 47.8125 142.242 47.8125Z" fill="#FAB991"/>
<path id="Vector_10" d="M90.3125 5.3125H79.6875C75.2864 5.3125 71.7188 8.88018 71.7188 13.2812V21.25C72.4232 21.25 73.0989 20.9701 73.597 20.472C74.0951 19.9739 74.375 19.2982 74.375 18.5938V15.9375C74.375 15.233 74.6549 14.5574 75.153 14.0592C75.6511 13.5611 76.3268 13.2812 77.0312 13.2812H92.9688C93.6732 13.2812 94.3489 13.5611 94.847 14.0592C95.3451 14.5574 95.625 15.233 95.625 15.9375V18.5938C95.625 19.2982 95.9049 19.9739 96.403 20.472C96.9011 20.9701 97.5768 21.25 98.2812 21.25V13.2812C98.2812 8.88018 94.7136 5.3125 90.3125 5.3125Z" fill="#463C4B"/>
<path id="Vector_11" d="M98.2812 26.5625V18.5938C98.9857 18.5938 99.6614 18.8736 100.16 19.3717C100.658 19.8699 100.938 20.5455 100.938 21.25V23.9062C100.938 24.6107 100.658 25.2864 100.16 25.7845C99.6614 26.2826 98.9857 26.5625 98.2812 26.5625ZM71.7188 26.5625V18.5938C71.0143 18.5938 70.3386 18.8736 69.8405 19.3717C69.3424 19.8699 69.0625 20.5455 69.0625 21.25V23.9062C69.0625 24.6107 69.3424 25.2864 69.8405 25.7845C70.3386 26.2826 71.0143 26.5625 71.7188 26.5625Z" fill="#F0915A"/>
<path id="Vector_12" d="M90.3125 63.75V69.0625C90.3125 71.9963 87.9338 74.375 85 74.375C82.0662 74.375 79.6875 71.9963 79.6875 69.0625V53.125C72.3526 53.125 66.4062 59.0713 66.4062 66.4062V85C66.4062 95.2691 74.7309 103.594 85 103.594C95.2691 103.594 103.594 95.2691 103.594 85V77.0312C103.594 69.6963 97.6474 63.75 90.3125 63.75ZM95.625 53.125H92.9688C92.4434 53.125 91.9298 53.2808 91.493 53.5727C91.0562 53.8645 90.7157 54.2794 90.5147 54.7647C90.3137 55.2501 90.261 55.7842 90.3635 56.2995C90.466 56.8147 90.719 57.288 91.0905 57.6595C91.462 58.031 91.9353 58.284 92.4505 58.3865C92.9658 58.489 93.4999 58.4364 93.9853 58.2353C94.4706 58.0343 94.8855 57.6938 95.1773 57.257C95.4692 56.8202 95.625 56.3066 95.625 55.7812V53.125Z" fill="#FAA019"/>
<path id="Vector_13" d="M85 98.2812C89.401 98.2812 92.9688 94.7135 92.9688 90.3125C92.9688 85.9115 89.401 82.3438 85 82.3438C80.599 82.3438 77.0312 85.9115 77.0312 90.3125C77.0312 94.7135 80.599 98.2812 85 98.2812Z" fill="#FFD205"/>
</g>
</g>
</svg>
