<svg width="171" height="170" viewBox="0 0 171 170" fill="none" xmlns="http://www.w3.org/2000/svg">
<g id="Frame">
<g id="Group">
<path id="Vector" d="M32.4277 59.2637C31.9686 59.2633 31.5174 59.144 31.1182 58.9174C30.7189 58.6907 30.3852 58.3645 30.1496 57.9705C29.9141 57.5764 29.7846 57.128 29.774 56.6691C29.7633 56.2101 29.8718 55.7562 30.0888 55.3517C35.9757 44.3687 44.8934 35.451 55.877 29.5628C56.1844 29.3978 56.5213 29.295 56.8685 29.2602C57.2156 29.2255 57.5662 29.2596 57.9002 29.3605C58.2342 29.4614 58.545 29.6272 58.8149 29.8483C59.0847 30.0694 59.3083 30.3416 59.4729 30.6492C59.8057 31.2701 59.8782 31.9978 59.6744 32.6722C59.4707 33.3465 59.0074 33.9123 58.3865 34.2451C48.3546 39.6116 40.137 47.8293 34.7705 57.8612C34.5438 58.2854 34.206 58.6399 33.7934 58.887C33.3807 59.134 32.9086 59.2642 32.4277 59.2637ZM57.0704 140.766C56.6323 140.766 56.201 140.657 55.8153 140.449C44.8878 134.588 35.937 125.627 30.0882 114.693C29.9208 114.385 29.8159 114.048 29.7795 113.699C29.7431 113.351 29.776 112.999 29.8762 112.663C29.9765 112.328 30.1421 112.015 30.3635 111.744C30.585 111.473 30.8579 111.248 31.1666 111.082C31.4753 110.917 31.8137 110.814 32.1622 110.78C32.5108 110.746 32.8627 110.781 33.1976 110.883C33.5326 110.985 33.844 111.153 34.1139 111.376C34.3838 111.599 34.607 111.874 34.7705 112.183C40.1268 122.196 48.3238 130.402 58.3307 135.77C58.8523 136.05 59.2654 136.496 59.5043 137.038C59.7433 137.579 59.7944 138.185 59.6496 138.76C59.5048 139.334 59.1723 139.843 58.705 140.206C58.2378 140.57 57.6624 140.767 57.0704 140.766ZM114.027 140.766C113.435 140.767 112.86 140.57 112.393 140.206C111.925 139.842 111.593 139.333 111.448 138.759C111.304 138.185 111.355 137.579 111.594 137.038C111.833 136.496 112.246 136.05 112.767 135.77C122.767 130.406 130.959 122.207 136.316 112.203C136.48 111.895 136.704 111.622 136.974 111.4C137.244 111.178 137.555 111.012 137.889 110.911C138.224 110.809 138.575 110.775 138.923 110.81C139.27 110.844 139.608 110.947 139.916 111.112C140.224 111.278 140.496 111.502 140.717 111.773C140.938 112.043 141.103 112.355 141.204 112.69C141.304 113.024 141.338 113.376 141.302 113.723C141.267 114.071 141.163 114.408 140.997 114.716C135.148 125.64 126.202 134.592 115.282 140.449C114.896 140.657 114.465 140.766 114.027 140.766ZM138.658 59.2431C138.178 59.2435 137.706 59.1135 137.293 58.8669C136.881 58.6202 136.543 58.2662 136.316 57.8426C130.95 47.8192 122.736 39.6088 112.711 34.2464C112.095 33.9111 111.636 33.3456 111.435 32.6734C111.234 32.0012 111.308 31.2768 111.639 30.6584C111.971 30.0401 112.533 29.5779 113.204 29.3729C113.875 29.1679 114.6 29.2366 115.22 29.5641C126.168 35.4195 135.137 44.3851 140.996 55.3304C141.213 55.7349 141.322 56.1887 141.312 56.6478C141.301 57.1068 141.172 57.5553 140.936 57.9495C140.701 58.3436 140.367 58.67 139.968 58.8967C139.569 59.1234 139.118 59.2428 138.658 59.2431Z" fill="#58595B"/>
<path id="Vector_2" d="M138.665 59.2557C138.498 59.2557 138.328 59.2397 138.157 59.2065L128.849 57.4036C128.507 57.3372 128.181 57.2041 127.89 57.0117C127.599 56.8193 127.348 56.5715 127.153 56.2825C126.958 55.9934 126.822 55.6687 126.752 55.3269C126.682 54.9851 126.68 54.6329 126.747 54.2905C126.813 53.948 126.946 53.622 127.139 53.331C127.331 53.04 127.579 52.7897 127.868 52.5945C128.157 52.3993 128.482 52.2629 128.823 52.1932C129.165 52.1234 129.517 52.1217 129.86 52.188L136.56 53.4856L137.858 46.7852C137.924 46.4428 138.057 46.1167 138.25 45.8258C138.442 45.5348 138.69 45.2845 138.979 45.0893C139.268 44.894 139.593 44.7577 139.935 44.6879C140.276 44.6182 140.628 44.6164 140.971 44.6828C141.313 44.7492 141.639 44.8823 141.93 45.0747C142.221 45.2671 142.472 45.5149 142.667 45.804C142.862 46.093 142.999 46.4177 143.068 46.7595C143.138 47.1013 143.14 47.4535 143.073 47.7959L141.27 57.1041C141.153 57.7093 140.829 58.2549 140.354 58.6475C139.879 59.04 139.282 59.255 138.665 59.2557ZM123.179 142.623C123.011 142.623 122.841 142.607 122.671 142.574L113.363 140.772C113.02 140.706 112.694 140.572 112.403 140.38C112.112 140.188 111.862 139.94 111.667 139.651C111.471 139.362 111.335 139.037 111.265 138.695C111.195 138.354 111.194 138.001 111.26 137.659L113.062 128.351C113.196 127.659 113.6 127.049 114.184 126.655C114.767 126.26 115.484 126.114 116.176 126.248C116.867 126.382 117.477 126.786 117.871 127.369C118.266 127.953 118.412 128.67 118.278 129.361L116.981 136.061L123.681 137.359C124.33 137.484 124.91 137.846 125.306 138.375C125.702 138.904 125.887 139.562 125.824 140.22C125.761 140.878 125.455 141.488 124.966 141.933C124.477 142.377 123.84 142.624 123.179 142.623ZM30.536 125.32C30.1441 125.32 29.7569 125.234 29.4022 125.067C29.0476 124.9 28.7343 124.657 28.4847 124.355C28.2352 124.052 28.0557 123.699 27.959 123.319C27.8623 122.939 27.8509 122.542 27.9256 122.158L29.7285 112.849C29.7947 112.507 29.9278 112.181 30.1201 111.89C30.3124 111.599 30.5602 111.348 30.8493 111.153C31.1385 110.958 31.4632 110.821 31.8051 110.752C32.1469 110.682 32.4992 110.681 32.8417 110.747L42.1498 112.549C42.8389 112.686 43.4457 113.09 43.8377 113.673C44.2296 114.256 44.3747 114.97 44.2411 115.66C44.1075 116.35 43.7063 116.958 43.125 117.353C42.5438 117.747 41.83 117.895 41.1398 117.765L34.4394 116.468L33.1418 123.168C33.0243 123.774 32.7001 124.319 32.2248 124.711C31.7495 125.104 31.1525 125.319 30.536 125.32ZM55.4483 43.7989C55.0564 43.7995 54.6692 43.7132 54.3146 43.5464C53.9599 43.3796 53.6466 43.1364 53.3971 42.8341C53.1475 42.5319 52.968 42.1782 52.8713 41.7984C52.7746 41.4186 52.7632 41.0221 52.8379 40.6373L54.1348 33.9376L47.4344 32.64C47.092 32.5737 46.7659 32.4405 46.4749 32.2481C46.1839 32.0558 45.9337 31.808 45.7385 31.5189C45.5432 31.2298 45.4069 30.9051 45.3371 30.5633C45.2674 30.2215 45.2656 29.8694 45.332 29.5269C45.3984 29.1845 45.5315 28.8584 45.7239 28.5674C45.9163 28.2764 46.1641 28.0262 46.4531 27.831C46.7422 27.6357 47.0669 27.4993 47.4087 27.4296C47.7505 27.3599 48.1027 27.3581 48.4451 27.4245L57.7533 29.2268C58.0958 29.2931 58.4218 29.4263 58.7128 29.6186C59.0038 29.811 59.254 30.0588 59.4493 30.3479C59.6445 30.637 59.7809 30.9617 59.8506 31.3035C59.9203 31.6452 59.9221 31.9974 59.8557 32.3399L58.0534 41.648C57.9362 42.2531 57.6122 42.7986 57.1369 43.191C56.6616 43.5834 56.0647 43.7983 55.4483 43.7989Z" fill="#808285"/>
<path id="Vector_3" d="M31.3079 104.04C41.823 104.04 50.3472 95.5154 50.3472 85.0003C50.3472 74.4851 41.823 65.9609 31.3079 65.9609C20.7928 65.9609 12.2686 74.4851 12.2686 85.0003C12.2686 95.5154 20.7928 104.04 31.3079 104.04Z" fill="#E63950"/>
<path id="Vector_4" d="M43.2855 70.2002C46.0342 73.5863 47.5315 77.8166 47.5248 82.1779C47.5248 92.6933 39.0009 101.217 28.4855 101.217C24.1242 101.224 19.8939 99.7266 16.5078 96.9779C19.9981 101.286 25.3312 104.039 31.3078 104.039C41.8225 104.039 50.3471 95.5156 50.3471 85.0002C50.3471 79.0236 47.5932 73.6905 43.2855 70.2002Z" fill="#D10028"/>
<path id="Vector_5" d="M139.695 104.03C150.209 104.03 158.732 95.5074 158.732 84.9937C158.732 74.48 150.209 65.957 139.695 65.957C129.182 65.957 120.659 74.48 120.659 84.9937C120.659 95.5074 129.182 104.03 139.695 104.03Z" fill="#478CF7"/>
<path id="Vector_6" d="M151.671 70.1953C154.419 73.581 155.916 77.8104 155.91 82.171C155.91 92.6844 147.387 101.208 136.873 101.208C132.513 101.214 128.283 99.7177 124.897 96.9696C128.388 101.277 133.72 104.03 139.695 104.03C150.209 104.03 158.732 95.5067 158.732 84.9933C158.732 79.018 155.978 73.6856 151.671 70.1953Z" fill="#377DE2"/>
<path id="Vector_7" d="M97.2318 154.176C105.525 147.711 107.006 135.748 100.541 127.455C94.0761 119.162 82.1125 117.68 73.8197 124.145C65.5269 130.611 64.0452 142.574 70.5103 150.867C76.9753 159.16 88.939 160.642 97.2318 154.176Z" fill="#76A34F"/>
<path id="Vector_8" d="M97.4779 124.392C100.227 127.778 101.724 132.008 101.717 136.369C101.717 146.885 93.1927 155.409 82.6779 155.409C78.3166 155.415 74.0863 153.918 70.7002 151.169C74.1905 155.477 79.5236 158.231 85.5002 158.231C96.0156 158.231 104.539 149.707 104.539 139.192C104.539 133.215 101.786 127.882 97.4779 124.392Z" fill="#648940"/>
<path id="Vector_9" d="M85.5 49.8437C96.0115 49.8437 104.533 41.3225 104.533 30.811C104.533 20.2995 96.0115 11.7783 85.5 11.7783C74.9885 11.7783 66.4673 20.2995 66.4673 30.811C66.4673 41.3225 74.9885 49.8437 85.5 49.8437Z" fill="#FFA91A"/>
<path id="Vector_10" d="M97.4729 16.0146C100.22 19.3998 101.717 23.6286 101.71 27.9884C101.71 38.4998 93.1891 47.0211 82.6776 47.0211C78.318 47.0277 74.0895 45.5312 70.7046 42.7837C74.1942 47.0901 79.5253 49.8433 85.4999 49.8433C96.0113 49.8433 104.533 41.3221 104.533 30.8106C104.533 24.8361 101.779 19.5043 97.4729 16.0146Z" fill="#F79219"/>
<path id="Vector_11" d="M85.5147 26.9094C85.3369 26.9078 85.167 26.8358 85.0422 26.7093C84.9174 26.5827 84.8478 26.4118 84.8486 26.234L84.8566 24.3414C84.86 23.0066 85.2769 21.7056 86.0499 20.6174C86.1008 20.5449 86.1655 20.4831 86.2402 20.4357C86.315 20.3883 86.3984 20.3561 86.4857 20.3409C86.5729 20.3258 86.6623 20.3281 86.7487 20.3476C86.8351 20.3671 86.9168 20.4034 86.9891 20.4546C87.0614 20.5057 87.1229 20.5706 87.17 20.6456C87.2172 20.7205 87.249 20.8041 87.2638 20.8914C87.2786 20.9787 87.276 21.0681 87.2562 21.1544C87.2364 21.2407 87.1997 21.3222 87.1483 21.3943C86.5354 22.2565 86.2048 23.2876 86.202 24.3454L86.194 26.238C86.1937 26.3264 86.1759 26.4139 86.1417 26.4954C86.1076 26.5769 86.0577 26.6509 85.9949 26.7131C85.9321 26.7754 85.8577 26.8246 85.7759 26.858C85.694 26.8915 85.6064 26.9085 85.518 26.908L85.5147 26.9094Z" fill="#FCC4AE"/>
<path id="Vector_12" d="M89.4872 24.7953C88.0362 24.7899 86.6305 25.3007 85.5214 26.2363C84.4203 25.2912 83.0187 24.7688 81.5676 24.7628C78.1171 24.7481 75.3081 27.6169 75.2935 31.1703C75.2789 34.7237 78.0394 43.4654 81.4892 43.48C82.992 43.4867 87.9054 43.5497 89.4082 43.5557C92.8586 43.5703 95.6922 34.8094 95.7068 31.2553C95.7221 27.7026 92.937 24.8112 89.4872 24.7953Z" fill="#E63950"/>
<path id="Vector_13" d="M83.9712 19.4543C85.0762 20.1801 85.5059 21.6092 85.6613 22.3695C85.6892 22.5077 85.6615 22.6513 85.5841 22.7692C85.5068 22.8871 85.3861 22.9697 85.2482 22.999C84.4885 23.1578 83.007 23.3311 81.9013 22.6053C80.7963 21.8794 80.3667 20.4504 80.2113 19.69C80.1834 19.5518 80.2111 19.4082 80.2884 19.2903C80.3657 19.1725 80.4865 19.0899 80.6243 19.0605C81.3847 18.9011 82.8669 18.7285 83.9712 19.4543ZM88.4211 16.7748C86.7609 17.8207 86.152 20.0035 85.9568 20.9776C85.9296 21.1124 85.9553 21.2525 86.0286 21.3689C86.1019 21.4852 86.2172 21.5689 86.3506 21.6025C87.3134 21.8476 89.5454 22.2414 91.2055 21.1961C92.8663 20.1509 93.4746 17.9674 93.6698 16.9946C93.6971 16.8598 93.6713 16.7197 93.598 16.6033C93.5247 16.487 93.4094 16.4033 93.2761 16.3697C92.3132 16.1233 90.0813 15.7296 88.4211 16.7748Z" fill="#76A34F"/>
<path id="Vector_14" d="M102.957 75.196C102.544 74.8275 101.872 74.9444 101.604 75.4278C100.119 77.9957 97.2585 80.9581 93.6433 82.0399C96.9444 77.8357 97.7492 71.8352 95.3991 67.0214C93.4182 62.9627 89.6483 60.086 85.812 57.8673C84.3411 56.9961 82.4625 58.4251 82.9121 60.0753C84.2661 65.0465 83.0675 70.5948 79.182 74.022C77.2622 71.8366 76.727 68.7008 77.4986 65.8487C77.7835 64.7995 76.5889 63.8924 75.6545 64.4442C73.2161 65.8573 70.8261 67.6742 69.5618 70.2614C68.0696 73.328 68.5823 77.1364 70.6781 79.806C68.306 79.0782 66.5834 77.24 65.6192 75.6051C65.5522 75.4846 65.4414 75.3945 65.3098 75.3534C65.2175 75.3189 65.1176 75.3103 65.0209 75.3284C64.9241 75.3466 64.8341 75.3908 64.7606 75.4564C62.965 76.979 61.591 81.1945 61.4217 86.2653C60.9329 97.7556 66.7103 108.08 78.2783 111.751C81.2247 112.573 85.239 112.88 88.6629 112.624C106.082 110.701 117.52 87.8478 102.957 75.196Z" fill="#FFA91A"/>
<path id="Vector_15" d="M102.958 75.1964C102.545 74.8278 101.872 74.9447 101.604 75.4281C101.576 75.4766 101.544 75.5264 101.515 75.5755C106.904 88.2339 96.5429 104.381 82.0225 105.983C78.5986 106.239 74.5843 105.931 71.6379 105.11C69.3747 104.392 67.3367 103.416 65.5205 102.23C68.3521 106.566 72.6207 109.955 78.2785 111.75C81.2249 112.572 85.2392 112.879 88.6631 112.624C106.082 110.702 117.521 87.8481 102.958 75.1964Z" fill="#F79219"/>
<path id="Vector_16" d="M102.958 75.1958C102.849 75.1 102.718 75.0339 102.577 75.0039C112.381 87.9618 101.404 107.531 85.3428 109.303C81.9189 109.558 77.9046 109.251 74.9582 108.429C71.8563 107.445 69.1748 105.979 66.915 104.144C69.6862 107.562 73.4833 110.228 78.2785 111.75C81.2249 112.572 85.2392 112.879 88.6631 112.623C106.082 110.701 117.521 87.8475 102.958 75.1958Z" fill="#EF7816"/>
<path id="Vector_17" d="M101.682 78.1807C101.976 77.1574 102.107 76.0956 102.087 75.0318V75.0278C101.882 75.0959 101.71 75.2386 101.605 75.4275C100.09 78.0014 97.3755 80.8921 93.6441 82.0396L93.6521 82.0296L93.6348 82.0396C93.413 82.3497 90.3783 86.6854 89.0455 88.5859C88.9747 88.6862 88.9465 88.8105 88.9671 88.9315C88.9878 89.0525 89.0556 89.1603 89.1557 89.2314C91.9123 89.1816 98.9035 86.3401 101.682 78.1807ZM102.476 105.749C97.2141 107.173 91.29 104.519 89.009 99.535C88.7712 99.0296 87.9664 99.187 87.9319 99.7415C87.7198 101.632 87.9668 103.546 88.6518 105.321C89.3369 107.096 90.4398 108.68 91.8671 109.938C92.2901 110.289 91.9382 111.026 91.3983 110.916C80.1325 109.113 74.1346 95.6117 80.2533 86.0233C80.5588 85.5691 80.0116 84.9628 79.5268 85.2165C73.7581 87.9385 68.1694 96.8688 67.0186 104.276C69.7804 107.631 73.5443 110.248 78.2791 111.75C81.2255 112.572 85.2398 112.879 88.6637 112.623C94.0618 112.027 98.8849 109.422 102.539 105.732C102.518 105.738 102.497 105.743 102.476 105.749ZM83.6035 58.0557C83.0298 58.5139 82.6924 59.2676 82.9122 60.0751C84.3858 65.4971 82.8345 71.558 78.1124 74.8664C74.4381 78.1216 72.3171 81.7932 71.4339 85.4934C71.2852 86.1163 72.0701 86.5154 72.4864 86.0286C74.8127 83.3086 77.7379 81.1451 80.6717 79.228C87.6264 74.1758 89.3198 64.6711 83.6042 58.0583L83.6035 58.0557Z" fill="#EF7816"/>
<path id="Vector_18" d="M79.4172 109.258C79.2844 109.258 79.1516 109.238 79.0188 109.197H79.0122C78.6771 109.088 78.3986 108.851 78.2371 108.538C78.0755 108.225 78.0438 107.86 78.1489 107.524C78.368 106.84 79.1317 106.448 79.8157 106.667H79.8223C79.9883 106.72 80.1422 106.805 80.2752 106.918C80.4081 107.03 80.5176 107.168 80.5972 107.323C80.6768 107.478 80.725 107.647 80.739 107.82C80.7531 107.994 80.7326 108.169 80.6789 108.334C80.5938 108.602 80.4257 108.836 80.1989 109.002C79.9721 109.168 79.6983 109.258 79.4172 109.258ZM74.6161 107.02C74.3637 107.02 74.118 106.947 73.9055 106.813C67.6301 102.822 64.0375 95.8233 64.0508 87.6088C64.0508 87.1838 64.0575 86.7721 64.0774 86.3869V86.3537C64.1371 84.6139 64.343 82.9929 64.695 81.5253C64.778 81.1845 64.9915 80.8899 65.2896 80.705C65.5877 80.52 65.9465 80.4595 66.2887 80.5365C66.6314 80.6186 66.9277 80.8328 67.1131 81.1325C67.2985 81.4322 67.3578 81.793 67.2782 82.1363C66.9661 83.4451 66.7801 84.8921 66.7336 86.446L66.727 86.4925C66.7137 86.8511 66.7071 87.2163 66.7071 87.6081C66.7137 94.9991 69.7817 101.022 75.3332 104.568C75.6321 104.761 75.8379 105.053 75.911 105.405C75.9907 105.751 75.9243 106.103 75.7383 106.401C75.4926 106.788 75.0743 107.02 74.6161 107.02Z" fill="#FFC91D"/>
<path id="Vector_19" d="M71.9777 89.9534C74.0256 89.9534 75.6858 88.2932 75.6858 86.2452C75.6858 84.1973 74.0256 82.5371 71.9777 82.5371C69.9297 82.5371 68.2695 84.1973 68.2695 86.2452C68.2695 88.2932 69.9297 89.9534 71.9777 89.9534Z" fill="white"/>
<path id="Vector_20" d="M102.089 69.667C103.652 69.667 104.918 68.4001 104.918 66.8374C104.918 65.2747 103.652 64.0078 102.089 64.0078C100.526 64.0078 99.2593 65.2747 99.2593 66.8374C99.2593 68.4001 100.526 69.667 102.089 69.667Z" fill="#F79219"/>
<path id="Vector_21" d="M75.293 60.4326C76.8557 60.4326 78.1225 59.1657 78.1225 57.603C78.1225 56.0403 76.8557 54.7734 75.293 54.7734C73.7302 54.7734 72.4634 56.0403 72.4634 57.603C72.4634 59.1657 73.7302 60.4326 75.293 60.4326Z" fill="#F79219"/>
<path id="Vector_22" d="M65.9648 69.667C67.5276 69.667 68.7944 68.4001 68.7944 66.8374C68.7944 65.2747 67.5276 64.0078 65.9648 64.0078C64.4021 64.0078 63.1353 65.2747 63.1353 66.8374C63.1353 68.4001 64.4021 69.667 65.9648 69.667Z" fill="#F79219"/>
<path id="Vector_23" d="M81.9492 81.3701C83.5119 81.3701 84.7788 80.1032 84.7788 78.5405C84.7788 76.9778 83.5119 75.7109 81.9492 75.7109C80.3865 75.7109 79.1196 76.9778 79.1196 78.5405C79.1196 80.1032 80.3865 81.3701 81.9492 81.3701Z" fill="white"/>
<path id="Vector_24" d="M93.4636 105.485C95.5189 105.485 97.185 103.819 97.185 101.763C97.185 99.7081 95.5189 98.042 93.4636 98.042C91.4083 98.042 89.7422 99.7081 89.7422 101.763C89.7422 103.819 91.4083 105.485 93.4636 105.485Z" fill="white"/>
<path id="Vector_25" d="M142.595 81.5499L148.079 74.0201C148.505 73.4344 148.087 72.6123 147.363 72.6123H140.511C140.228 72.6123 139.962 72.7478 139.795 72.9769L130.586 85.6213C130.16 86.207 130.578 87.0291 131.303 87.0291H136.078C136.802 87.0291 137.22 87.8512 136.794 88.4369L131.31 95.9667C130.884 96.5524 131.302 97.3745 132.027 97.3745H138.878C139.161 97.3745 139.428 97.2391 139.594 97.01L148.803 84.3655C149.229 83.7798 148.811 82.9577 148.086 82.9577H143.312C142.587 82.9584 142.169 82.1356 142.595 81.5499ZM34.2083 81.5499L39.6922 74.0201C40.1185 73.4344 39.7001 72.6123 38.9756 72.6123H32.1252C31.8416 72.6123 31.5753 72.7478 31.4087 72.9769L22.2001 85.6213C21.7738 86.207 22.1921 87.0291 22.9166 87.0291H27.6912C28.4157 87.0291 28.8341 87.8512 28.4078 88.4369L22.9239 95.9667C22.4976 96.5524 22.916 97.3745 23.6404 97.3745H30.4916C30.7751 97.3745 31.0414 97.2391 31.2081 97.01L40.4167 84.3655C40.843 83.7798 40.4246 82.9577 39.7001 82.9577H34.9255C34.2004 82.9584 33.782 82.1356 34.2083 81.5499Z" fill="#FFA91A"/>
<path id="Vector_26" d="M91.2836 148.628C88.7349 151.469 85.3914 153.438 81.4707 153.628C79.2355 153.736 76.8595 153.024 75.4251 151.306C73.9907 149.588 73.8154 146.778 75.3866 145.185C76.5527 144.004 78.4074 143.643 79.44 142.344C80.7276 140.724 80.2256 138.33 79.3311 136.464C78.4366 134.598 77.1855 132.789 77.1218 130.721C77.0567 128.619 78.3078 126.612 80.0476 125.43C81.7875 124.249 83.949 123.814 86.0521 123.841C89.5896 123.887 93.2864 125.359 95.1796 128.347C96.4307 130.321 96.784 132.745 96.7163 135.081C96.5801 139.733 94.6085 144.922 91.2836 148.628Z" fill="#FCC4AE"/>
<path id="Vector_27" d="M76.904 150.071C77.8197 151.168 79.5337 151.793 81.3778 151.704C85.3163 151.514 88.1585 149.227 89.8492 147.342C92.7704 144.086 94.663 139.367 94.7898 135.026C94.8582 132.683 94.4412 130.783 93.552 129.38C92.443 127.63 90.5883 126.619 88.717 126.132C87.8378 125.904 86.9344 125.782 86.0262 125.769C84.6622 125.751 82.7052 125.954 81.1301 127.025C79.8239 127.912 79.0064 129.34 79.0476 130.663C79.0834 131.819 79.7196 133.029 80.393 134.308C80.6181 134.736 80.8505 135.178 81.0683 135.632C82.5432 138.707 82.4994 141.591 80.9488 143.543C80.1486 144.55 79.1213 145.104 78.2148 145.593C77.6391 145.904 77.0959 146.197 76.7585 146.539C75.963 147.344 76.0327 149.028 76.904 150.071Z" fill="#E63950"/>
<path id="Vector_28" d="M87.5422 135.637C89.5119 135.427 90.9382 133.66 90.7281 131.69C90.5179 129.72 88.7508 128.294 86.7812 128.504C84.8116 128.714 83.3852 130.481 83.5953 132.451C83.8055 134.421 85.5726 135.847 87.5422 135.637Z" fill="#FCC4AE"/>
<path id="Vector_29" d="M88.9306 132.577C88.8705 132.817 88.7635 133.042 88.6157 133.241C88.468 133.439 88.2824 133.606 88.0697 133.732C87.857 133.858 87.6215 133.941 87.3766 133.976C87.1318 134.01 86.8825 133.996 86.6432 133.934C86.4039 133.871 86.1792 133.762 85.9823 133.613C85.7854 133.463 85.6201 133.276 85.4959 133.062C85.3717 132.848 85.2911 132.612 85.2588 132.367C85.2264 132.122 85.243 131.873 85.3075 131.634C85.4362 131.157 85.7478 130.751 86.1745 130.503C86.6013 130.255 87.1086 130.186 87.5862 130.31C88.0638 130.435 88.4729 130.742 88.7247 131.167C88.9765 131.591 89.0505 132.098 88.9306 132.577Z" fill="#E59076"/>
</g>
</g>
</svg>
