<svg width="171" height="170" viewBox="0 0 171 170" fill="none" xmlns="http://www.w3.org/2000/svg">
<g id="Frame">
<g id="Group">
<path id="Vector" d="M20.6377 72.29L26.2756 135.379C26.683 139.905 28.7696 144.114 32.1248 147.179C35.4799 150.243 39.8605 151.941 44.4045 151.938H107.032C111.736 151.94 116.259 150.121 119.65 146.861C123.041 143.601 125.038 139.154 125.221 134.453L127.588 72.29H20.6377Z" fill="#49BDFF"/>
<path id="Vector_2" d="M156.289 41.2713C161.442 41.424 165.596 45.8068 165.154 50.9334C165.141 51.1127 165.121 51.292 165.095 51.4746L155.174 120.511C155.07 121.316 154.677 122.057 154.067 122.593C153.457 123.13 152.672 123.426 151.86 123.426C151.86 123.426 145.774 123.426 140.976 123.432C140.226 123.434 139.482 123.287 138.789 123C138.096 122.714 137.466 122.293 136.936 121.761C136.405 121.23 135.986 120.6 135.7 119.906C135.414 119.212 135.269 118.469 135.272 117.718V117.575C135.272 116.847 135.417 116.126 135.698 115.454C135.978 114.781 136.389 114.171 136.906 113.658C137.423 113.145 138.037 112.74 138.711 112.465C139.386 112.19 140.108 112.052 140.837 112.057H141.006C141.798 112.062 142.565 111.781 143.166 111.266C143.767 110.75 144.161 110.035 144.276 109.251L149.23 62.86C149.355 61.6874 149.056 60.5089 148.387 59.5376C147.719 58.5663 146.724 57.8662 145.585 57.5641L128.326 56.9764L127.509 56.9697L128.14 40.4512L156.289 41.2713Z" fill="#6D7486"/>
<path id="Vector_3" d="M118.348 18.0625H8.33258C7.85831 18.0624 7.39367 18.1964 6.99226 18.449C6.59086 18.7016 6.26903 19.0626 6.0639 19.4902C5.85877 19.9178 5.77869 20.3947 5.83289 20.8659C5.8871 21.337 6.07339 21.7833 6.37028 22.1531L16.3511 34.5977C17.0243 35.4374 17.4344 36.4574 17.5298 37.5295L20.6377 72.2898H127.588L129.225 29.3449C129.28 27.8827 129.039 26.4245 128.517 25.0576C127.995 23.6907 127.202 22.4432 126.187 21.3898C125.171 20.3364 123.953 19.4987 122.606 18.927C121.259 18.3553 119.811 18.0613 118.348 18.0625Z" fill="#A5E2FB"/>
<path id="Vector_4" d="M27.4908 37.5594C27.3957 36.4752 26.986 35.4423 26.3121 34.5877L16.3312 22.0319C15.1887 20.6079 15.9122 18.5938 17.4936 17.9297H8.33257C7.85451 17.9383 7.38839 18.0805 6.98686 18.3401C6.58533 18.5996 6.26439 18.9663 6.06028 19.3987C5.85618 19.8311 5.77705 20.312 5.83182 20.7869C5.8866 21.2619 6.0731 21.7121 6.37027 22.0867L16.3511 34.5645C17.0255 35.4277 17.4349 36.4681 17.5298 37.5594L20.6376 72.3828H30.5966L27.4908 37.5594Z" fill="#7AB0C1"/>
<path id="Vector_5" d="M36.2365 135.554L30.5966 72.3828H20.6377L26.2756 135.492C26.6821 140.02 28.7679 144.232 32.1226 147.299C35.4774 150.367 39.8585 152.069 44.4045 152.07H52.2105C48.06 151.561 44.2099 149.643 41.3028 146.637C38.3956 143.631 36.6074 139.719 36.2365 135.554Z" fill="#3692B2"/>
<path id="Vector_6" d="M118.587 107.97C118.059 107.97 117.552 107.761 117.179 107.387C116.805 107.013 116.595 106.507 116.595 105.978V89.1565C116.595 88.6281 116.805 88.1214 117.179 87.7478C117.552 87.3742 118.059 87.1643 118.587 87.1643C119.116 87.1643 119.622 87.3742 119.996 87.7478C120.37 88.1214 120.58 88.6281 120.58 89.1565V105.978C120.58 106.507 120.37 107.013 119.996 107.387C119.622 107.761 119.116 107.97 118.587 107.97ZM118.587 85.1675C118.059 85.1675 117.552 84.9576 117.179 84.584C116.805 84.2104 116.595 83.7037 116.595 83.1753V82.1875C116.595 81.6591 116.805 81.1524 117.179 80.7788C117.552 80.4052 118.059 80.1953 118.587 80.1953C119.116 80.1953 119.622 80.4052 119.996 80.7788C120.37 81.1524 120.58 81.6591 120.58 82.1875V83.1753C120.58 83.7037 120.37 84.2104 119.996 84.584C119.622 84.9576 119.116 85.1675 118.587 85.1675Z" fill="#F4F8FC"/>
<path id="Vector_7" d="M96.6413 38.46H82.0469C81.5185 38.46 81.0118 38.6699 80.6382 39.0435C80.2646 39.4171 80.0547 39.9238 80.0547 40.4521C80.0547 40.9805 80.2646 41.4872 80.6382 41.8608C81.0118 42.2344 81.5185 42.4443 82.0469 42.4443H95.777V54.1162H87.2027C86.6743 54.1162 86.1676 54.3261 85.794 54.6997C85.4204 55.0733 85.2105 55.5801 85.2105 56.1084C85.2105 56.6368 85.4204 57.1435 85.794 57.5171C86.1676 57.8907 86.6743 58.1006 87.2027 58.1006H95.777V86.633H87.2027C86.6743 86.633 86.1676 86.8429 85.794 87.2165C85.4204 87.5901 85.2105 88.0969 85.2105 88.6252C85.2105 89.1536 85.4204 89.6603 85.794 90.0339C86.1676 90.4075 86.6743 90.6174 87.2027 90.6174H95.777V102.691H82.0469C81.5185 102.691 81.0118 102.901 80.6382 103.274C80.2646 103.648 80.0547 104.155 80.0547 104.683C80.0547 105.211 80.2646 105.718 80.6382 106.092C81.0118 106.465 81.5185 106.675 82.0469 106.675H95.777V119.15H87.2027C86.6743 119.15 86.1676 119.36 85.794 119.734C85.4204 120.107 85.2105 120.614 85.2105 121.142C85.2105 121.671 85.4204 122.177 85.794 122.551C86.1676 122.925 86.6743 123.135 87.2027 123.135H95.777V134.534C95.7794 134.629 95.7581 134.722 95.7149 134.806H82.0469C81.5185 134.806 81.0118 135.016 80.6382 135.39C80.2646 135.763 80.0547 136.27 80.0547 136.798C80.0547 137.327 80.2646 137.833 80.6382 138.207C81.0118 138.581 81.5185 138.791 82.0469 138.791H95.8504C98.0086 138.791 99.7614 136.881 99.7614 134.534V41.7833C99.7614 39.9508 98.3616 38.46 96.6413 38.46Z" fill="#4689D3"/>
</g>
</g>
</svg>
