<svg width="24" height="25" viewBox="0 0 24 25" fill="none" xmlns="http://www.w3.org/2000/svg">
<g clipPath="url(#clip0_1127_5775)">
<path d="M23.7534 20.3756L13.5945 2.78363C13.4329 2.50379 13.2005 2.27142 12.9206 2.10987C12.6408 1.94831 12.3233 1.86327 12.0002 1.86328C11.677 1.86325 11.3595 1.94829 11.0797 2.10985C10.7998 2.2714 10.5674 2.50378 10.4058 2.78363L0.246879 20.3756C0.0851971 20.6554 5.02486e-05 20.9729 2.22335e-08 21.2961C-5.02042e-05 21.6193 0.084998 21.9369 0.246592 22.2168C0.408187 22.4967 0.640631 22.7291 0.920552 22.8907C1.20047 23.0523 1.518 23.1373 1.84121 23.1373H22.1591C22.4823 23.1373 22.7998 23.0522 23.0796 22.8906C23.3595 22.729 23.5919 22.4966 23.7535 22.2167C23.9151 21.9368 24.0002 21.6193 24.0001 21.2961C24.0001 20.9729 23.915 20.6554 23.7534 20.3756ZM1.84121 21.2962L12.0002 3.70427L22.1591 21.2962H1.84121Z" fill="#1F2937"/>
<path d="M10.7256 10.0421L11.2536 16.0865C11.2844 16.4423 11.5668 16.7356 11.9349 16.7678C12.3471 16.8038 12.7105 16.4988 12.7465 16.0865L13.2745 10.0421C13.2801 9.97148 13.2809 9.89232 13.2745 9.8195C13.213 9.11558 12.5926 8.59489 11.8888 8.65628C11.1849 8.71782 10.6642 9.33835 10.7256 10.0421Z" fill="#1F2937"/>
<path d="M12.0003 19.2545C12.5835 19.2545 13.0562 18.7817 13.0562 18.1985C13.0562 17.6153 12.5835 17.1426 12.0003 17.1426C11.4171 17.1426 10.9443 17.6153 10.9443 18.1985C10.9443 18.7817 11.4171 19.2545 12.0003 19.2545Z" fill="#1F2937"/>
</g>
<defs>
<clipPath id="clip0_1127_5775">
<rect width="24" height="24" fill="white" transform="translate(0 0.5)"/>
</clipPath>
</defs>
</svg>
