<svg width="24" height="25" viewBox="0 0 24 25" fill="none" xmlns="http://www.w3.org/2000/svg">
<path d="M23.2242 22.25V5.75C23.2242 5.15326 22.9871 4.58097 22.5652 4.15901C22.1432 3.73705 21.5709 3.5 20.9742 3.5H8.59917C8.40026 3.5 8.2095 3.42098 8.06884 3.28033C7.92819 3.13968 7.84917 2.94891 7.84917 2.75C7.84917 2.55109 7.92819 2.36032 8.06884 2.21967C8.2095 2.07902 8.40026 2 8.59917 2H20.9742C21.1731 2 21.3639 1.92098 21.5045 1.78033C21.6452 1.63968 21.7242 1.44891 21.7242 1.25C21.7242 1.05109 21.6452 0.860322 21.5045 0.71967C21.3639 0.579018 21.1731 0.5 20.9742 0.5H8.59917C8.00244 0.5 7.43014 0.737053 7.00818 1.15901C6.58623 1.58097 6.34917 2.15326 6.34917 2.75V9.4025C5.33362 9.64372 4.3867 10.1141 3.58086 10.7775C2.77502 11.441 2.13161 12.2799 1.69987 13.2303C1.26813 14.1806 1.05949 15.2171 1.08992 16.2605C1.12035 17.3039 1.38903 18.3264 1.87542 19.25L0.825423 22.025C0.775429 22.1578 0.764144 22.3021 0.792879 22.4411C0.821614 22.58 0.88919 22.708 0.987757 22.8101C1.08632 22.9122 1.21184 22.9843 1.34971 23.0179C1.48759 23.0515 1.63218 23.0453 1.76667 23L4.60542 22.0475C5.168 22.357 5.77146 22.5855 6.39792 22.7262C6.5068 23.229 6.78466 23.6792 7.1852 24.002C7.58574 24.3247 8.08478 24.5005 8.59917 24.5H20.9742C21.5709 24.5 22.1432 24.2629 22.5652 23.841C22.9871 23.419 23.2242 22.8467 23.2242 22.25ZM5.09292 20.5887C4.97288 20.5128 4.83373 20.4725 4.69167 20.4725C4.61118 20.4731 4.53135 20.487 4.45542 20.5138L2.77542 21.0763L3.37542 19.43C3.41426 19.3248 3.42903 19.2123 3.41865 19.1007C3.40827 18.9891 3.37299 18.8812 3.31542 18.785C2.64582 17.6613 2.41129 16.3312 2.65621 15.0463C2.90113 13.7614 3.60852 12.6108 4.64453 11.8122C5.68054 11.0137 6.97331 10.6225 8.27825 10.7128C9.58318 10.8031 10.8098 11.3686 11.7259 12.3022C12.6421 13.2358 13.1843 14.4729 13.2499 15.7793C13.3155 17.0857 12.9 18.3708 12.0821 19.3916C11.2641 20.4123 10.1003 21.0978 8.81103 21.3185C7.52171 21.5391 6.19625 21.2795 5.08542 20.5887H5.09292ZM8.19417 22.88C9.97435 22.7972 11.6518 22.0225 12.8692 20.721C14.0866 19.4195 14.7476 17.6941 14.7114 15.9123C14.6752 14.1306 13.9447 12.4334 12.6755 11.1824C11.4063 9.9314 9.69875 9.22546 7.91667 9.215H7.84917V4.8725C8.09012 4.95726 8.34375 5.00038 8.59917 5H20.9742C21.1731 5 21.3639 5.07902 21.5045 5.21967C21.6452 5.36032 21.7242 5.55109 21.7242 5.75V22.25C21.7242 22.4489 21.6452 22.6397 21.5045 22.7803C21.3639 22.921 21.1731 23 20.9742 23H8.59917C8.45546 22.9996 8.31489 22.958 8.19417 22.88Z" fill="#1F2937"/>
<path d="M7.7666 13.8428C7.56769 13.8428 7.37692 13.9218 7.23627 14.0624C7.09562 14.2031 7.0166 14.3939 7.0166 14.5928V19.719C7.0166 19.9179 7.09562 20.1087 7.23627 20.2494C7.37692 20.39 7.56769 20.469 7.7666 20.469C7.96551 20.469 8.15628 20.39 8.29693 20.2494C8.43758 20.1087 8.5166 19.9179 8.5166 19.719V14.5928C8.5166 14.3939 8.43758 14.2031 8.29693 14.0624C8.15628 13.9218 7.96551 13.8428 7.7666 13.8428Z" fill="#1F2937"/>
<path d="M7.7666 13.3438C8.18082 13.3438 8.5166 13.008 8.5166 12.5938C8.5166 12.1795 8.18082 11.8438 7.7666 11.8438C7.35239 11.8438 7.0166 12.1795 7.0166 12.5938C7.0166 13.008 7.35239 13.3438 7.7666 13.3438Z" fill="#1F2937"/>
</svg>
