<svg width="24" height="25" viewBox="0 0 24 25" fill="none" xmlns="http://www.w3.org/2000/svg">
<g clipPath="url(#clip0_1127_5741)">
<path d="M12 0.5C5.3832 0.5 0 5.88327 0 12.5001C0 19.1169 5.3832 24.5 12 24.5C18.6168 24.5 24 19.1169 24 12.5001C24 5.88327 18.6168 0.5 12 0.5ZM12 22.3182C6.58618 22.3182 2.18182 17.9138 2.18182 12.5001C2.18182 7.08633 6.58618 2.68182 12 2.68182C17.4138 2.68182 21.8182 7.08633 21.8182 12.5001C21.8182 17.9138 17.4137 22.3182 12 22.3182Z" fill="#1F2937"/>
<path d="M12.0002 5.59082C11.1983 5.59082 10.5459 6.24362 10.5459 7.04602C10.5459 7.84769 11.1983 8.49991 12.0002 8.49991C12.802 8.49991 13.4544 7.84769 13.4544 7.04602C13.4544 6.24362 12.802 5.59082 12.0002 5.59082ZM12.0003 10.6817C11.3978 10.6817 10.9094 11.1702 10.9094 11.7726V18.3181C10.9094 18.9206 11.3978 19.409 12.0003 19.409C12.6028 19.409 13.0912 18.9206 13.0912 18.3181V11.7726C13.0912 11.1702 12.6028 10.6817 12.0003 10.6817Z" fill="#1F2937"/>
</g>
<defs>
<clipPath id="clip0_1127_5741">
<rect width="24" height="24" fill="white" transform="translate(0 0.5)"/>
</clipPath>
</defs>
</svg>
