<svg width="20" height="21" viewBox="0 0 20 21" fill="none" xmlns="http://www.w3.org/2000/svg">
<path d="M10 18C14.1421 18 17.5 14.6421 17.5 10.5C17.5 6.35786 14.1421 3 10 3M10 18C5.85786 18 2.5 14.6421 2.5 10.5C2.5 6.35786 5.85786 3 10 3M10 18C12.3012 18 13.2844 13.6975 13.2844 10.5C13.2844 7.30253 12.3012 3 10 3M10 18C7.69881 18 6.71579 13.6974 6.71579 10.5C6.71579 7.30256 7.69881 3 10 3M2.91656 7.99998C8.44899 7.99998 11.5508 7.99998 17.0832 7.99998M2.91656 13C8.44899 13 11.5508 13 17.0832 13" stroke="#4B5563" strokeWidth="1.5" strokeLinecap="round" strokeLinejoin="round"/>
</svg>
