<svg width="24" height="25" viewBox="0 0 24 25" fill="none" xmlns="http://www.w3.org/2000/svg">
<path d="M2.54961 13.9056C2.2778 13.5326 2.1419 13.3462 2.04835 12.9854C1.98388 12.7367 1.98388 12.2633 2.04835 12.0146C2.1419 11.6538 2.2778 11.4674 2.54961 11.0944C4.03902 9.05068 7.30262 5.5 12 5.5C16.6974 5.5 19.961 9.05068 21.4504 11.0944C21.7222 11.4674 21.8581 11.6538 21.9516 12.0146C22.0161 12.2633 22.0161 12.7367 21.9516 12.9854C21.8581 13.3462 21.7222 13.5326 21.4504 13.9056C19.961 15.9493 16.6974 19.5 12 19.5C7.30262 19.5 4.03902 15.9493 2.54961 13.9056Z" stroke="#6B7280" strokeWidth="1.5" strokeLinecap="round" strokeLinejoin="round"/>
<path d="M12 14.5C13.1046 14.5 14 13.6046 14 12.5C14 11.3954 13.1046 10.5 12 10.5C10.8954 10.5 10 11.3954 10 12.5C10 13.6046 10.8954 14.5 12 14.5Z" stroke="#6B7280" strokeWidth="1.5" strokeLinecap="round" strokeLinejoin="round"/>
</svg>
