<svg width="20" height="19" viewBox="0 0 20 19" fill="none" xmlns="http://www.w3.org/2000/svg">
<path d="M19.375 9.5C19.375 9.79837 19.2565 10.0845 19.0455 10.2955C18.8345 10.5065 18.5484 10.625 18.25 10.625H11.125V17.75C11.125 18.0484 11.0065 18.3345 10.7955 18.5455C10.5845 18.7565 10.2984 18.875 10 18.875C9.70163 18.875 9.41548 18.7565 9.2045 18.5455C8.99353 18.3345 8.875 18.0484 8.875 17.75V10.625H1.75C1.45163 10.625 1.16548 10.5065 0.954505 10.2955C0.743526 10.0845 0.625 9.79837 0.625 9.5C0.625 9.20163 0.743526 8.91548 0.954505 8.7045C1.16548 8.49353 1.45163 8.375 1.75 8.375H8.875V1.25C8.875 0.951631 8.99353 0.665483 9.2045 0.454505C9.41548 0.243526 9.70163 0.125 10 0.125C10.2984 0.125 10.5845 0.243526 10.7955 0.454505C11.0065 0.665483 11.125 0.951631 11.125 1.25V8.375H18.25C18.5484 8.375 18.8345 8.49353 19.0455 8.7045C19.2565 8.91548 19.375 9.20163 19.375 9.5Z" fill="#111827"/>
</svg>
