<svg width="24" height="25" viewBox="0 0 24 25" fill="none" xmlns="http://www.w3.org/2000/svg">
<path d="M2.66778 17.3105C2.52949 17.0394 2.40275 16.7625 2.28791 16.4806C2.27413 16.4462 2.25369 16.4149 2.22776 16.3884C2.20183 16.3619 2.17093 16.3408 2.13682 16.3263C2.10271 16.3118 2.06607 16.3042 2.02901 16.3039C1.99195 16.3036 1.9552 16.3107 1.92087 16.3246C1.88654 16.3386 1.8553 16.3592 1.82896 16.3853C1.80262 16.4113 1.78169 16.4424 1.76738 16.4766C1.75307 16.5107 1.74565 16.5474 1.74556 16.5845C1.74547 16.6215 1.7527 16.6583 1.76684 16.6925C1.88761 16.9893 2.02105 17.2809 2.16678 17.5663C2.18358 17.5992 2.20668 17.6284 2.23479 17.6524C2.26289 17.6764 2.29544 17.6945 2.33057 17.7059C2.36571 17.7173 2.40274 17.7217 2.43956 17.7188C2.47638 17.7158 2.51226 17.7057 2.54516 17.6889C2.57805 17.6721 2.60732 17.649 2.63129 17.6209C2.65525 17.5928 2.67345 17.5602 2.68483 17.5251C2.69622 17.49 2.70058 17.4529 2.69765 17.4161C2.69472 17.3793 2.68458 17.3434 2.66778 17.3105ZM1.98003 15.6213C1.88961 15.3305 1.8116 15.036 1.74622 14.7386C1.7294 14.6666 1.6849 14.6041 1.62236 14.5647C1.55983 14.5252 1.48428 14.512 1.41206 14.5279C1.33985 14.5437 1.27678 14.5874 1.2365 14.6493C1.19622 14.7113 1.18198 14.7867 1.19684 14.8591C1.26509 15.1704 1.34778 15.4829 1.44266 15.7884C1.46481 15.8596 1.51437 15.9192 1.58042 15.9539C1.64647 15.9886 1.72362 15.9957 1.79488 15.9735C1.86614 15.9514 1.92568 15.9018 1.9604 15.8358C1.99512 15.7697 2.00219 15.6926 1.98003 15.6213ZM1.34609 14.1551C1.42004 14.1453 1.48708 14.1066 1.53247 14.0474C1.57787 13.9882 1.5979 13.9135 1.58816 13.8395C1.54841 13.5395 1.52103 13.2339 1.50641 12.9296C1.50512 12.8925 1.49644 12.8561 1.48086 12.8225C1.46529 12.7889 1.44314 12.7587 1.41573 12.7338C1.38831 12.7088 1.35618 12.6896 1.32123 12.6773C1.28628 12.665 1.24921 12.6598 1.21222 12.662C1.17532 12.6638 1.13913 12.6728 1.10571 12.6885C1.07229 12.7043 1.04231 12.7264 1.01746 12.7538C0.992613 12.7811 0.973396 12.8131 0.960904 12.8478C0.948412 12.8826 0.942892 12.9195 0.944657 12.9564C0.959845 13.2764 0.98872 13.5982 1.03034 13.9126C1.03517 13.9493 1.04717 13.9846 1.06566 14.0166C1.08414 14.0486 1.10874 14.0766 1.13807 14.0991C1.16739 14.1216 1.20085 14.138 1.23655 14.1476C1.27224 14.1571 1.30947 14.1595 1.34609 14.1547V14.1551ZM6.26272 21.3712C6.01019 21.2007 5.76492 21.0196 5.52753 20.8286C5.49875 20.8054 5.46569 20.7882 5.43024 20.7778C5.39479 20.7674 5.35764 20.7642 5.32092 20.7681C5.2842 20.7721 5.24863 20.7833 5.21623 20.801C5.18383 20.8188 5.15524 20.8427 5.13209 20.8715C5.10895 20.9003 5.0917 20.9334 5.08133 20.9688C5.07096 21.0043 5.06768 21.0414 5.07167 21.0781C5.07565 21.1148 5.08683 21.1504 5.10457 21.1828C5.1223 21.2152 5.14625 21.2438 5.17503 21.2669C5.42468 21.4678 5.68265 21.6581 5.94828 21.8373C6.01001 21.8791 6.08579 21.8947 6.15899 21.8806C6.23219 21.8665 6.29681 21.824 6.33866 21.7623C6.35942 21.7317 6.37392 21.6972 6.38134 21.661C6.38876 21.6247 6.38894 21.5873 6.38189 21.551C6.37483 21.5147 6.36068 21.4801 6.34023 21.4492C6.31978 21.4184 6.29344 21.3918 6.26272 21.3712ZM3.11666 18.1064C3.09755 18.0743 3.07221 18.0462 3.04213 18.024C3.01206 18.0017 2.97784 17.9857 2.94149 17.9768C2.90514 17.968 2.86738 17.9664 2.83044 17.9724C2.79349 17.9783 2.75809 17.9915 2.72632 18.0112C2.69455 18.031 2.66704 18.0569 2.6454 18.0874C2.62376 18.118 2.60843 18.1525 2.60031 18.189C2.59219 18.2255 2.59143 18.2633 2.59809 18.3001C2.60475 18.337 2.61869 18.3721 2.63909 18.4034C2.80848 18.6753 2.98901 18.9401 3.18022 19.1971C3.20229 19.2268 3.22999 19.2517 3.26172 19.2707C3.29345 19.2896 3.32859 19.3021 3.36515 19.3074C3.4017 19.3127 3.43895 19.3108 3.47476 19.3018C3.51058 19.2927 3.54425 19.2767 3.57388 19.2546C3.6035 19.2325 3.62848 19.2048 3.6474 19.1731C3.66632 19.1414 3.6788 19.1062 3.68414 19.0697C3.68948 19.0331 3.68756 18.9959 3.6785 18.9601C3.66944 18.9242 3.65342 18.8906 3.63134 18.8609C3.44993 18.6163 3.27824 18.3646 3.11666 18.1064ZM4.20716 19.5689C4.1577 19.5131 4.08809 19.4792 4.01363 19.4747C3.93917 19.4702 3.86597 19.4954 3.81013 19.5449C3.75428 19.5943 3.72037 19.6639 3.71585 19.7384C3.71133 19.8128 3.73658 19.886 3.78603 19.9419C3.99866 20.1817 4.22117 20.4125 4.45297 20.6338C4.47945 20.6604 4.511 20.6814 4.54576 20.6957C4.58051 20.7099 4.61776 20.717 4.65531 20.7167C4.69287 20.7163 4.72996 20.7083 4.76441 20.6934C4.79886 20.6784 4.82996 20.6567 4.85588 20.6295C4.8818 20.6024 4.90202 20.5703 4.91534 20.5352C4.92866 20.5001 4.93481 20.4626 4.93343 20.4251C4.93206 20.3876 4.92318 20.3507 4.90732 20.3166C4.89146 20.2826 4.86894 20.2521 4.84109 20.2269C4.62099 20.0162 4.4095 19.7967 4.20716 19.5689ZM12.2972 1.04395C10.4744 1.04573 8.67857 1.48507 7.06077 2.32503C5.44297 3.16499 4.05044 4.38103 3.00022 5.87094C2.95725 5.93194 2.94028 6.0075 2.95302 6.08101C2.96577 6.15451 3.0072 6.21995 3.06819 6.26291C3.12918 6.30588 3.20474 6.32286 3.27825 6.31011C3.35176 6.29736 3.41719 6.25594 3.46016 6.19495C4.63954 4.51994 6.27099 3.2149 8.1641 2.43214C10.0572 1.64939 12.1339 1.42119 14.1518 1.7742C16.1697 2.1272 18.0456 3.04684 19.5606 4.42578C21.0756 5.80473 22.1671 7.58611 22.7078 9.56202C23.2485 11.5379 23.2161 13.6269 22.6144 15.5851C22.0126 17.5432 20.8663 19.2899 19.3093 20.6212C17.7523 21.9525 15.8488 22.8135 13.8209 23.1037C11.793 23.3939 9.72439 23.1014 7.85647 22.2603C7.57887 22.135 7.30675 21.9979 7.04084 21.8493C7.00858 21.831 6.97301 21.8192 6.93618 21.8147C6.89935 21.8102 6.862 21.813 6.82626 21.823C6.79052 21.833 6.75711 21.8499 6.72795 21.8729C6.6988 21.8958 6.67447 21.9243 6.65638 21.9567C6.63828 21.9891 6.62677 22.0247 6.62252 22.0616C6.61826 22.0985 6.62135 22.1358 6.63158 22.1715C6.64182 22.2071 6.65902 22.2404 6.68218 22.2694C6.70534 22.2984 6.73401 22.3225 6.76653 22.3404C7.04646 22.4967 7.33291 22.641 7.62509 22.7729C9.17072 23.4696 10.8526 23.8116 12.5475 23.774C14.2425 23.7364 15.9075 23.3202 17.4208 22.5557C18.934 21.7913 20.257 20.698 21.293 19.356C22.329 18.014 23.0516 16.4572 23.408 14.7998C23.7644 13.1423 23.7455 11.4261 23.3527 9.77686C22.9599 8.12764 22.2031 6.58717 21.1379 5.2683C20.0726 3.94943 18.7258 2.88556 17.1961 2.15462C15.6664 1.42369 13.9926 1.04419 12.2972 1.04395Z" fill="#1F2937"/>
<path d="M3.08522 6.98952C2.89957 6.98918 2.72007 6.92289 2.57876 6.80249C2.43744 6.68208 2.34349 6.51539 2.31366 6.33215L2.07966 4.87921C2.06988 4.80652 2.08888 4.73288 2.13261 4.674C2.17634 4.61512 2.24134 4.57565 2.31376 4.56401C2.38617 4.55237 2.46027 4.56948 2.52026 4.61169C2.58024 4.65389 2.62136 4.71787 2.63485 4.78996L2.86941 6.24271C2.87899 6.30002 2.91078 6.35124 2.95789 6.38526C3.005 6.41927 3.06362 6.43334 3.12104 6.4244L4.57379 6.1904C4.64648 6.18061 4.72011 6.19961 4.77899 6.24334C4.83788 6.28708 4.87734 6.35208 4.88899 6.42449C4.90063 6.49691 4.88352 6.57101 4.84131 6.63099C4.7991 6.69097 4.73513 6.73209 4.66304 6.74558L3.21029 6.97958C3.16893 6.98625 3.12711 6.98957 3.08522 6.98952ZM19.5614 7.60508L12.7276 4.00377C12.598 3.93524 12.4536 3.89941 12.3069 3.89941C12.1603 3.89941 12.0159 3.93524 11.8863 4.00377L5.0521 7.60508C4.90659 7.68147 4.78477 7.79624 4.69985 7.93695C4.61494 8.07765 4.57017 8.23893 4.57041 8.40327V16.4142C4.57014 16.5786 4.61489 16.7399 4.6998 16.8806C4.78472 17.0214 4.90656 17.1362 5.0521 17.2126L11.8863 20.8139C12.016 20.8822 12.1604 20.918 12.3069 20.918C12.4535 20.918 12.5979 20.8822 12.7276 20.8139L19.5614 17.2126C19.707 17.1362 19.8289 17.0214 19.9138 16.8807C19.9988 16.7399 20.0435 16.5786 20.0433 16.4142V8.40327C20.0435 8.23891 19.9987 8.07762 19.9138 7.93691C19.8288 7.7962 19.707 7.68144 19.5614 7.60508ZM9.64079 9.91246C9.49159 9.98738 9.36623 10.1024 9.27879 10.2446C9.19135 10.3868 9.14529 10.5506 9.14579 10.7176V13.9313C9.14643 13.9374 9.1449 13.9434 9.14146 13.9484C9.13802 13.9534 9.1329 13.957 9.12704 13.9585C9.12177 13.9615 9.1156 13.9624 9.10969 13.9611C9.10379 13.9598 9.09855 13.9565 9.09497 13.9516L8.48035 13.31C8.41013 13.2373 8.32259 13.1837 8.22597 13.1542C8.12934 13.1247 8.0268 13.1202 7.92798 13.1412L7.52691 13.2276C7.52264 13.2285 7.51822 13.2285 7.51398 13.2274C7.50974 13.2264 7.50578 13.2245 7.50239 13.2217C7.499 13.219 7.49626 13.2155 7.49437 13.2116C7.49248 13.2076 7.49149 13.2033 7.49148 13.199V9.59596C7.49121 9.53308 7.50852 9.47137 7.54145 9.4178C7.57438 9.36423 7.62162 9.32093 7.67785 9.29277L14.7579 5.70946L16.3194 6.5324L9.64079 9.91246ZM12.1484 4.50121C12.1973 4.47548 12.2517 4.46203 12.3069 4.46203C12.3622 4.46203 12.4166 4.47548 12.4655 4.50121L14.1477 5.38771L7.42435 8.79083C7.35616 8.82559 7.29271 8.86895 7.23554 8.91983L5.4646 8.0234L12.1484 4.50121ZM12.0256 20.2512L5.31441 16.7148C5.25966 16.6861 5.2138 16.643 5.18181 16.5901C5.14982 16.5372 5.13291 16.4766 5.13291 16.4148V8.48596L6.95166 9.40621C6.93756 9.46849 6.93014 9.5321 6.92954 9.59596V13.1984C6.92955 13.2867 6.94932 13.3738 6.98737 13.4535C7.02543 13.5331 7.08082 13.6033 7.14949 13.6587C7.21816 13.7142 7.29837 13.7536 7.38424 13.7741C7.47012 13.7946 7.55948 13.7956 7.64579 13.777L8.04685 13.6908C8.05177 13.6894 8.05697 13.6895 8.06185 13.691C8.06673 13.6925 8.07109 13.6953 8.07441 13.6992L8.68941 14.3408C8.77112 14.4261 8.87649 14.485 8.99194 14.5099C9.1074 14.5348 9.22767 14.5246 9.33728 14.4806C9.44688 14.4366 9.54081 14.3607 9.60696 14.2629C9.67311 14.165 9.70847 14.0496 9.70848 13.9315V10.8018L11.8998 11.9106C11.9404 11.9309 11.9825 11.948 12.0258 11.9616L12.0256 20.2512ZM12.1537 11.4089L10.0419 10.3401L16.9295 6.85396L19.1493 8.02358L12.4606 11.4091C12.413 11.433 12.3604 11.4455 12.3071 11.4455C12.2538 11.4455 12.2013 11.4328 12.1537 11.4089ZM19.4808 16.414C19.4808 16.4758 19.4638 16.5364 19.4318 16.5893C19.3998 16.6422 19.354 16.6853 19.2993 16.714L12.5881 20.2516V11.9618C12.6316 11.9481 12.674 11.9309 12.7149 11.9106L19.4808 8.48615V16.414Z" fill="#1F2937"/>
</svg>
