<svg width="20" height="20" viewBox="0 0 20 20" fill="none" xmlns="http://www.w3.org/2000/svg">
<path d="M16.0413 16.0413L12.9163 12.9163M3.95801 9.16634C3.95801 6.28986 6.28986 3.95801 9.16634 3.95801C12.0428 3.95801 14.3747 6.28986 14.3747 9.16634C14.3747 12.0428 12.0428 14.3747 9.16634 14.3747C6.28986 14.3747 3.95801 12.0428 3.95801 9.16634Z" stroke="#B26BCA" strokeWidth="1.5" strokeLinecap="round" strokeLinejoin="round"/>
<path d="M16.0413 16.0413L12.9163 12.9163M3.95801 9.16634C3.95801 6.28986 6.28986 3.95801 9.16634 3.95801C12.0428 3.95801 14.3747 6.28986 14.3747 9.16634C14.3747 12.0428 12.0428 14.3747 9.16634 14.3747C6.28986 14.3747 3.95801 12.0428 3.95801 9.16634Z" stroke="black" strokeOpacity="0.2" strokeWidth="1.5" strokeLinecap="round" strokeLinejoin="round"/>
<path d="M16.0413 16.0413L12.9163 12.9163M3.95801 9.16634C3.95801 6.28986 6.28986 3.95801 9.16634 3.95801C12.0428 3.95801 14.3747 6.28986 14.3747 9.16634C14.3747 12.0428 12.0428 14.3747 9.16634 14.3747C6.28986 14.3747 3.95801 12.0428 3.95801 9.16634Z" stroke="black" strokeOpacity="0.2" strokeWidth="1.5" strokeLinecap="round" strokeLinejoin="round"/>
</svg>
