<svg width="24" height="25" viewBox="0 0 24 25" fill="none" xmlns="http://www.w3.org/2000/svg">
<path d="M23.0502 5.79554L12.1533 0.534944C12.1056 0.511945 12.0534 0.5 12.0005 0.5C11.9475 0.5 11.8953 0.511945 11.8476 0.534944L0.950656 5.79554C0.891117 5.82429 0.840891 5.86924 0.805743 5.92524C0.770596 5.98124 0.751953 6.04602 0.751953 6.11213V18.8879C0.751953 18.954 0.770596 19.0188 0.805743 19.0748C0.840891 19.1308 0.891117 19.1757 0.950656 19.2045L11.8476 24.4651C11.8953 24.4881 11.9475 24.5 12.0005 24.5C12.0534 24.5 12.1056 24.4881 12.1533 24.4651L23.0502 19.2045C23.1098 19.1757 23.16 19.1308 23.1952 19.0748C23.2303 19.0188 23.249 18.954 23.249 18.8879V6.11218C23.2489 6.04606 23.2303 5.98128 23.1952 5.92527C23.16 5.86926 23.1098 5.8243 23.0502 5.79554ZM12.0005 1.24196L22.0887 6.11213L19.1644 7.52391C19.1458 7.50944 19.1259 7.49687 19.1048 7.48641L9.08506 2.64938L12.0005 1.24196ZM8.29109 3.04688L18.3647 7.90998L16.3015 8.90602L6.23206 4.0449L8.29109 3.04688ZM18.6004 8.57691V12.2588L16.6732 13.1891V9.50729L18.6004 8.57691ZM22.5458 18.6673L12.352 23.5883V11.5934L14.7836 10.4195C14.8251 10.3994 14.8624 10.3714 14.8931 10.3369C14.9238 10.3025 14.9475 10.2623 14.9627 10.2187C14.9779 10.1751 14.9843 10.129 14.9817 10.0829C14.9791 10.0368 14.9674 9.99164 14.9473 9.95007C14.9272 9.90849 14.8992 9.87128 14.8647 9.84055C14.8302 9.80982 14.7901 9.78618 14.7465 9.77098C14.7029 9.75577 14.6567 9.7493 14.6106 9.75194C14.5645 9.75457 14.5194 9.76626 14.4778 9.78633L12.0005 10.9824L11.0256 10.5117C10.9841 10.4916 10.9389 10.4799 10.8928 10.4773C10.8468 10.4747 10.8006 10.4811 10.757 10.4963C10.7134 10.5115 10.6732 10.5352 10.6388 10.5659C10.6043 10.5967 10.5763 10.6339 10.5562 10.6755C10.5361 10.717 10.5244 10.7622 10.5218 10.8083C10.5192 10.8543 10.5256 10.9005 10.5408 10.9441C10.556 10.9877 10.5797 11.0279 10.6104 11.0623C10.6411 11.0968 10.6783 11.1248 10.7199 11.1449L11.6489 11.5934V23.5883L1.45508 18.6672V6.67224L9.21758 10.4197C9.26513 10.4427 9.3173 10.4547 9.37016 10.4547C9.44982 10.4548 9.52717 10.4279 9.5895 10.3783C9.65184 10.3286 9.69548 10.2593 9.71327 10.1817C9.73107 10.104 9.72195 10.0226 9.68743 9.95082C9.6529 9.87901 9.59502 9.82107 9.52325 9.78648L1.91216 6.11213L5.40458 4.42613L15.9652 9.5244C15.9668 9.52655 15.9685 9.52847 15.9701 9.53058V13.7493C15.9701 13.8088 15.9853 13.8673 16.0141 13.9194C16.0429 13.9715 16.0844 14.0154 16.1348 14.047C16.1852 14.0786 16.2428 14.097 16.3022 14.1003C16.3617 14.1036 16.4209 14.0917 16.4745 14.0659L19.1048 12.7961C19.1644 12.7673 19.2146 12.7224 19.2497 12.6664C19.2849 12.6104 19.3035 12.5456 19.3035 12.4795V8.23754L22.5458 6.67229V18.6673Z" fill="#1F2937"/>
<path d="M4.35649 17.3033L2.75735 16.5314C2.67339 16.4908 2.57676 16.4853 2.48872 16.516C2.40068 16.5467 2.32844 16.6111 2.2879 16.6951C2.24736 16.7791 2.24183 16.8757 2.27254 16.9637C2.30325 17.0518 2.36767 17.124 2.45164 17.1645L4.05078 17.9365C4.09833 17.9596 4.1505 17.9716 4.20335 17.9716C4.26952 17.9716 4.33435 17.953 4.3904 17.9178C4.44645 17.8827 4.49143 17.8324 4.52018 17.7728C4.54026 17.7312 4.55196 17.6861 4.5546 17.64C4.55724 17.5939 4.55078 17.5478 4.53558 17.5042C4.52038 17.4606 4.49674 17.4204 4.46601 17.3859C4.43528 17.3515 4.39807 17.3234 4.35649 17.3033ZM5.82823 16.3454L2.75956 14.8639C2.67579 14.8249 2.58003 14.8204 2.493 14.8515C2.40596 14.8825 2.33464 14.9466 2.29447 15.0298C2.2543 15.113 2.24851 15.2087 2.27834 15.2962C2.30817 15.3836 2.37123 15.4558 2.45389 15.4972L5.52256 16.9786C5.57012 17.0016 5.62228 17.0136 5.67513 17.0137C5.75482 17.0138 5.83219 16.9868 5.89454 16.9372C5.9569 16.8876 6.00056 16.8183 6.01835 16.7406C6.03615 16.6629 6.02702 16.5815 5.99248 16.5097C5.95794 16.4379 5.90002 16.3799 5.82823 16.3454Z" fill="#1F2937"/>
</svg>
