<svg width="22" height="23" viewBox="0 0 22 23" fill="none" xmlns="http://www.w3.org/2000/svg">
<path fill-rule="evenodd" clip-rule="evenodd" d="M13.2768 21.2936C13.2085 21.2936 13.143 21.2665 13.0946 21.2181C13.0463 21.1698 13.0192 21.1043 13.0192 21.036C13.0192 20.9677 13.0463 20.9021 13.0946 20.8538C13.143 20.8055 13.2085 20.7784 13.2768 20.7784H14.6304C14.6987 20.7784 14.7643 20.8055 14.8126 20.8538C14.8609 20.9021 14.888 20.9677 14.888 21.036C14.888 21.1043 14.8609 21.1698 14.8126 21.2181C14.7643 21.2665 14.6987 21.2936 14.6304 21.2936H13.2768ZM15.4498 13.6588V15.6118L16.0986 14.8345C16.1512 14.791 16.2189 14.7701 16.2869 14.7765C16.3548 14.783 16.4174 14.8161 16.4609 14.8687L17.0755 15.6118V13.6588H15.4498ZM17.5908 13.6588V16.3271C17.5908 16.5655 17.2864 16.6846 17.1265 16.4811L16.2626 15.4365L15.3904 16.4912C15.2367 16.6769 14.935 16.5665 14.9348 16.3271H14.9345V13.6589H12.1509C12.0544 13.6589 11.9747 13.7387 11.9747 13.8351V22.0585C11.9747 22.155 12.0545 22.2348 12.1509 22.2348H20.3743C20.4708 22.2348 20.5505 22.1549 20.5505 22.0585V13.8351C20.5505 13.7387 20.4707 13.6589 20.3743 13.6589H17.5907L17.5908 13.6588ZM11.8093 2.01916H10.302C10.1556 2.01916 10.0425 1.90493 10.0449 1.74509C10.0361 1.47631 9.92238 1.23377 9.74323 1.0571C9.10901 0.431696 8.02741 0.875696 8.01612 1.76454C8.01532 1.83208 7.98792 1.89657 7.93988 1.94405C7.89184 1.99152 7.82702 2.01814 7.75948 2.01813V2.01916H6.25216V3.88849H11.8093L11.8093 2.01916ZM2.10851 17.9855C2.10907 18.0707 2.12998 18.1001 2.17812 18.1616L4.15029 20.5505C4.17395 20.5849 4.20563 20.613 4.24259 20.6324C4.27956 20.6519 4.32069 20.662 4.36245 20.662H11.4594V21.3206H2.86952C2.0892 21.3206 1.44987 20.6812 1.44987 19.9009V4.04543C1.44987 3.2651 2.0892 2.62577 2.86952 2.62577H5.73696V3.28441H2.86957C2.45051 3.28441 2.10855 3.62637 2.10855 4.04543L2.10851 17.9855ZM12.3246 2.11052V1.76154C12.3246 1.69321 12.2974 1.62769 12.2491 1.57937C12.2008 1.53106 12.1353 1.50391 12.067 1.50391H10.5339C10.4775 1.19504 10.3272 0.911098 10.1035 0.690821C9.22535 -0.175101 7.74532 0.307618 7.52754 1.50391H5.99454C5.92621 1.50391 5.86068 1.53106 5.81237 1.57937C5.76406 1.62769 5.73691 1.69321 5.73691 1.76154V2.11052H2.86948C1.80476 2.11052 0.93457 2.98071 0.93457 4.04543V19.9009C0.93457 20.9656 1.80476 21.8358 2.86948 21.8358H11.4594V22.0585C11.4594 22.4393 11.7701 22.75 12.151 22.75H20.3744C20.7552 22.75 21.0659 22.4392 21.0659 22.0585V13.8351C21.0659 13.4542 20.7552 13.1436 20.3744 13.1436H17.1269V4.04543C17.1269 2.98071 16.2567 2.11052 15.192 2.11052H12.3246H12.3246ZM12.3246 3.28441V2.62577H15.192C15.9723 2.62577 16.6116 3.2651 16.6116 4.04543V13.1436H15.953V4.04543C15.953 3.62642 15.611 3.28441 15.1919 3.28441H12.3246ZM2.91157 18.2432L4.10482 19.6889V18.2432H2.91157ZM5.55996 7.25688H13.9741C14.0424 7.25688 14.108 7.22974 14.1563 7.18143C14.2046 7.13311 14.2317 7.06758 14.2317 6.99926C14.2317 6.93093 14.2046 6.8654 14.1563 6.81709C14.108 6.76878 14.0424 6.74163 13.9741 6.74163H5.55996C5.49163 6.74163 5.42611 6.76878 5.37779 6.81709C5.32948 6.8654 5.30234 6.93093 5.30234 6.99926C5.30234 7.06758 5.32948 7.13311 5.37779 7.18143C5.42611 7.22974 5.49163 7.25688 5.55996 7.25688ZM4.08729 7.25688H4.18615C4.25448 7.25688 4.32 7.22974 4.36832 7.18143C4.41663 7.13311 4.44377 7.06758 4.44377 6.99926C4.44377 6.93093 4.41663 6.8654 4.36832 6.81709C4.32 6.76878 4.25448 6.74163 4.18615 6.74163H4.08729C4.01896 6.74163 3.95343 6.76878 3.90512 6.81709C3.85681 6.8654 3.82966 6.93093 3.82966 6.99926C3.82966 7.06758 3.85681 7.13311 3.90512 7.18143C3.95343 7.22974 4.01896 7.25688 4.08729 7.25688ZM5.55996 9.10535H13.9741C14.0424 9.10535 14.108 9.07821 14.1563 9.0299C14.2046 8.98158 14.2317 8.91605 14.2317 8.84773C14.2317 8.7794 14.2046 8.71387 14.1563 8.66556C14.108 8.61724 14.0424 8.5901 13.9741 8.5901H5.55996C5.49163 8.5901 5.42611 8.61724 5.37779 8.66556C5.32948 8.71387 5.30234 8.7794 5.30234 8.84773C5.30234 8.91605 5.32948 8.98158 5.37779 9.0299C5.42611 9.07821 5.49163 9.10535 5.55996 9.10535ZM4.08729 9.10535H4.18615C4.25448 9.10535 4.32 9.07821 4.36832 9.0299C4.41663 8.98158 4.44377 8.91605 4.44377 8.84773C4.44377 8.7794 4.41663 8.71387 4.36832 8.66556C4.32 8.61724 4.25448 8.5901 4.18615 8.5901H4.08729C4.01896 8.5901 3.95343 8.61724 3.90512 8.66556C3.85681 8.71387 3.82966 8.7794 3.82966 8.84773C3.82966 8.91605 3.85681 8.98158 3.90512 9.0299C3.95343 9.07821 4.01896 9.10535 4.08729 9.10535ZM5.55996 10.9538H13.9741C14.0424 10.9538 14.108 10.9267 14.1563 10.8784C14.2046 10.8301 14.2317 10.7645 14.2317 10.6962C14.2317 10.6279 14.2046 10.5623 14.1563 10.514C14.108 10.4657 14.0424 10.4386 13.9741 10.4386H5.55996C5.49163 10.4386 5.42611 10.4657 5.37779 10.514C5.32948 10.5623 5.30234 10.6279 5.30234 10.6962C5.30234 10.7645 5.32948 10.8301 5.37779 10.8784C5.42611 10.9267 5.49163 10.9538 5.55996 10.9538ZM4.08729 10.9538H4.18615C4.25448 10.9538 4.32 10.9267 4.36832 10.8784C4.41663 10.8301 4.44377 10.7645 4.44377 10.6962C4.44377 10.6279 4.41663 10.5623 4.36832 10.514C4.32 10.4657 4.25448 10.4386 4.18615 10.4386H4.08729C4.01896 10.4386 3.95343 10.4657 3.90512 10.514C3.85681 10.5623 3.82966 10.6279 3.82966 10.6962C3.82966 10.7645 3.85681 10.8301 3.90512 10.8784C3.95343 10.9267 4.01896 10.9538 4.08729 10.9538ZM5.55996 12.8023H13.9741C14.0424 12.8023 14.108 12.7751 14.1563 12.7268C14.2046 12.6785 14.2317 12.613 14.2317 12.5447C14.2317 12.4763 14.2046 12.4108 14.1563 12.3625C14.108 12.3142 14.0424 12.287 13.9741 12.287H5.55996C5.49163 12.287 5.42611 12.3142 5.37779 12.3625C5.32948 12.4108 5.30234 12.4763 5.30234 12.5447C5.30234 12.613 5.32948 12.6785 5.37779 12.7268C5.42611 12.7751 5.49163 12.8023 5.55996 12.8023ZM4.08729 12.8023H4.18615C4.25448 12.8023 4.32 12.7751 4.36832 12.7268C4.41663 12.6785 4.44377 12.613 4.44377 12.5447C4.44377 12.4763 4.41663 12.4108 4.36832 12.3625C4.32 12.3142 4.25448 12.287 4.18615 12.287H4.08729C4.01896 12.287 3.95343 12.3142 3.90512 12.3625C3.85681 12.4108 3.82966 12.4763 3.82966 12.5447C3.82966 12.613 3.85681 12.6785 3.90512 12.7268C3.95343 12.7751 4.01896 12.8023 4.08729 12.8023ZM4.08729 14.6508H4.18615C4.25448 14.6508 4.32 14.6236 4.36832 14.5753C4.41663 14.527 4.44377 14.4615 4.44377 14.3931C4.44377 14.3248 4.41663 14.2593 4.36832 14.211C4.32 14.1627 4.25448 14.1355 4.18615 14.1355H4.08729C4.01896 14.1355 3.95343 14.1627 3.90512 14.211C3.85681 14.2593 3.82966 14.3248 3.82966 14.3931C3.82966 14.4615 3.85681 14.527 3.90512 14.5753C3.95343 14.6236 4.01896 14.6508 4.08729 14.6508ZM4.08729 16.4992H4.18615C4.25448 16.4992 4.32 16.4721 4.36832 16.4238C4.41663 16.3755 4.44377 16.3099 4.44377 16.2416C4.44377 16.1733 4.41663 16.1077 4.36832 16.0594C4.32 16.0111 4.25448 15.984 4.18615 15.984H4.08729C4.01896 15.984 3.95343 16.0111 3.90512 16.0594C3.85681 16.1077 3.82966 16.1733 3.82966 16.2416C3.82966 16.3099 3.85681 16.3755 3.90512 16.4238C3.95343 16.4721 4.01896 16.4992 4.08729 16.4992ZM13.2768 20.3299C13.2084 20.3299 13.1429 20.3027 13.0946 20.2544C13.0463 20.2061 13.0191 20.1406 13.0191 20.0722C13.0191 20.0039 13.0463 19.9384 13.0946 19.8901C13.1429 19.8417 13.2084 19.8146 13.2768 19.8146H14.6304C14.6987 19.8146 14.7642 19.8417 14.8125 19.8901C14.8608 19.9384 14.888 20.0039 14.888 20.0722C14.888 20.1406 14.8608 20.2061 14.8125 20.2544C14.7642 20.3027 14.6987 20.3299 14.6304 20.3299H13.2768ZM12.1509 13.1435C12.0601 13.1435 11.9702 13.1615 11.8864 13.1963C11.8025 13.2311 11.7264 13.2821 11.6623 13.3465C11.425 13.5838 11.4594 13.8299 11.4594 14.1355H5.55996C5.49163 14.1355 5.42611 14.1626 5.37779 14.2109C5.32948 14.2592 5.30234 14.3248 5.30234 14.3931C5.30234 14.4614 5.32948 14.5269 5.37779 14.5753C5.42611 14.6236 5.49163 14.6507 5.55996 14.6507H11.4594V15.9839H5.55996C5.49163 15.9839 5.42611 16.0111 5.37779 16.0594C5.32948 16.1077 5.30234 16.1732 5.30234 16.2416C5.30234 16.3099 5.32948 16.3754 5.37779 16.4237C5.42611 16.472 5.49163 16.4992 5.55996 16.4992H11.4594V20.1466H4.62007V17.9854C4.62007 17.9171 4.59293 17.8516 4.54461 17.8033C4.4963 17.755 4.43077 17.7278 4.36245 17.7278H2.6238V4.04543C2.6238 3.91076 2.7349 3.79971 2.86957 3.79971H5.73696V4.14616C5.73696 4.21449 5.7641 4.28002 5.81242 4.32833C5.86073 4.37665 5.92626 4.40379 5.99459 4.40379H12.067C12.1353 4.40379 12.2008 4.37665 12.2491 4.32833C12.2974 4.28002 12.3246 4.21449 12.3246 4.14616V3.79971H15.1919C15.3266 3.79971 15.4377 3.91081 15.4377 4.04543V13.1436H12.151L12.1509 13.1435Z" fill="#1F2937"/>
</svg>
