<svg width="16" height="16" viewBox="0 0 16 16" fill="none" xmlns="http://www.w3.org/2000/svg">
<path d="M7.33797 1.20803C7.69637 0.436296 8.79351 0.436297 9.15191 1.20803L10.6298 4.39038C10.7755 4.70413 11.073 4.92029 11.4165 4.96192L14.8997 5.38408C15.7445 5.48646 16.0835 6.5299 15.4603 7.10924L12.8904 9.49821C12.637 9.73374 12.5234 10.0835 12.5899 10.423L13.2648 13.8662C13.4285 14.7012 12.5409 15.3461 11.7973 14.9324L8.73111 13.2266C8.42881 13.0584 8.06106 13.0584 7.75876 13.2266L4.69257 14.9324C3.94901 15.3461 3.06141 14.7012 3.22507 13.8662L3.89996 10.423C3.9665 10.0835 3.85286 9.73374 3.59949 9.49821L1.02959 7.10924C0.406378 6.5299 0.745415 5.48646 1.59013 5.38408L5.07342 4.96192C5.41684 4.92029 5.71436 4.70413 5.86007 4.39038L7.33797 1.20803Z" fill="#FDD032"/>
</svg>
