<svg width="16" height="19" viewBox="0 0 16 19" fill="none" xmlns="http://www.w3.org/2000/svg">
<path d="M12.6002 3.32C11.9167 2.53953 11.5401 1.5374 11.5402 0.5H8.45016V12.9C8.42682 13.5712 8.14368 14.2071 7.66046 14.6735C7.17725 15.1399 6.53175 15.4004 5.86016 15.4C4.44016 15.4 3.26016 14.24 3.26016 12.8C3.26016 11.08 4.92016 9.79 6.63016 10.32V7.16C3.18016 6.7 0.160156 9.38 0.160156 12.8C0.160156 16.13 2.92016 18.5 5.85016 18.5C8.99016 18.5 11.5402 15.95 11.5402 12.8V6.51C12.7932 7.40985 14.2975 7.89265 15.8402 7.89V4.8C15.8402 4.8 13.9602 4.89 12.6002 3.32Z" fill="white"/>
</svg>
