<svg width="20" height="21" viewBox="0 0 20 21" fill="none" xmlns="http://www.w3.org/2000/svg">
<path d="M10.8328 12.792H9.99949C9.65782 12.792 9.37449 12.5087 9.37449 12.167C9.37449 11.8253 9.65782 11.542 9.99949 11.542H10.8328C11.4078 11.542 11.8745 11.0753 11.8745 10.5003V2.79199H4.99949C4.01616 2.79199 3.11613 3.32531 2.6328 4.18364C2.46613 4.48364 2.08283 4.59201 1.78283 4.42534C1.48283 4.25868 1.37447 3.87533 1.54114 3.57533C2.24114 2.32533 3.56616 1.54199 4.99949 1.54199H12.4995C12.8412 1.54199 13.1245 1.82533 13.1245 2.16699V10.5003C13.1245 11.767 12.0995 12.792 10.8328 12.792Z" fill="#4B5563"/>
<path d="M15.8337 17.792H15.0003C14.6587 17.792 14.3753 17.5087 14.3753 17.167C14.3753 16.592 13.9087 16.1253 13.3337 16.1253C12.7587 16.1253 12.292 16.592 12.292 17.167C12.292 17.5087 12.0087 17.792 11.667 17.792H8.33366C7.99199 17.792 7.70866 17.5087 7.70866 17.167C7.70866 16.592 7.24199 16.1253 6.66699 16.1253C6.09199 16.1253 5.62533 16.592 5.62533 17.167C5.62533 17.5087 5.34199 17.792 5.00033 17.792H4.16699C2.44199 17.792 1.04199 16.392 1.04199 14.667C1.04199 14.3253 1.32533 14.042 1.66699 14.042C2.00866 14.042 2.29199 14.3253 2.29199 14.667C2.29199 15.7003 3.13366 16.542 4.16699 16.542H4.45864C4.73364 15.5837 5.61699 14.8753 6.66699 14.8753C7.71699 14.8753 8.60035 15.5837 8.87535 16.542H11.1336C11.4086 15.5837 12.292 14.8753 13.342 14.8753C14.392 14.8753 15.2753 15.5837 15.5503 16.542H15.8337C16.867 16.542 17.7087 15.7003 17.7087 14.667V12.792H15.8337C15.0337 12.792 14.3753 12.1337 14.3753 11.3337V8.83366C14.3753 8.03366 15.0253 7.37533 15.8337 7.37533L14.942 5.817C14.7587 5.492 14.4087 5.29199 14.0337 5.29199H13.1253V10.5003C13.1253 11.767 12.1003 12.792 10.8337 12.792H10.0003C9.65866 12.792 9.37533 12.5087 9.37533 12.167C9.37533 11.8253 9.65866 11.542 10.0003 11.542H10.8337C11.4087 11.542 11.8753 11.0753 11.8753 10.5003V4.66699C11.8753 4.32533 12.1587 4.04199 12.5003 4.04199H14.0337C14.8587 4.04199 15.617 4.48367 16.0253 5.20034L17.4503 7.692C17.5587 7.88366 17.5587 8.12533 17.4503 8.317C17.342 8.50866 17.1336 8.62533 16.9086 8.62533H15.8337C15.717 8.62533 15.6253 8.71699 15.6253 8.83366V11.3337C15.6253 11.4503 15.717 11.542 15.8337 11.542H18.3337C18.6753 11.542 18.9587 11.8253 18.9587 12.167V14.667C18.9587 16.392 17.5587 17.792 15.8337 17.792Z" fill="#4B5563"/>
<path d="M6.66667 19.4583C5.4 19.4583 4.375 18.4333 4.375 17.1667C4.375 15.9 5.4 14.875 6.66667 14.875C7.93333 14.875 8.95833 15.9 8.95833 17.1667C8.95833 18.4333 7.93333 19.4583 6.66667 19.4583ZM6.66667 16.125C6.09167 16.125 5.625 16.5917 5.625 17.1667C5.625 17.7417 6.09167 18.2083 6.66667 18.2083C7.24167 18.2083 7.70833 17.7417 7.70833 17.1667C7.70833 16.5917 7.24167 16.125 6.66667 16.125Z" fill="#4B5563"/>
<path d="M13.3337 19.4583C12.067 19.4583 11.042 18.4333 11.042 17.1667C11.042 15.9 12.067 14.875 13.3337 14.875C14.6003 14.875 15.6253 15.9 15.6253 17.1667C15.6253 18.4333 14.6003 19.4583 13.3337 19.4583ZM13.3337 16.125C12.7587 16.125 12.292 16.5917 12.292 17.1667C12.292 17.7417 12.7587 18.2083 13.3337 18.2083C13.9087 18.2083 14.3753 17.7417 14.3753 17.1667C14.3753 16.5917 13.9087 16.125 13.3337 16.125Z" fill="#4B5563"/>
<path d="M18.3333 12.7917H15.8333C15.0333 12.7917 14.375 12.1333 14.375 11.3333V8.83333C14.375 8.03333 15.0333 7.375 15.8333 7.375H16.9083C17.1333 7.375 17.3417 7.49167 17.45 7.69167L18.875 10.1917C18.925 10.2833 18.9583 10.3917 18.9583 10.5V12.1667C18.9583 12.5083 18.675 12.7917 18.3333 12.7917ZM15.8333 8.625C15.7167 8.625 15.625 8.71667 15.625 8.83333V11.3333C15.625 11.45 15.7167 11.5417 15.8333 11.5417H17.7083V10.6667L16.5416 8.625H15.8333Z" fill="#4B5563"/>
<path d="M6.66699 7.79199H1.66699C1.32533 7.79199 1.04199 7.50866 1.04199 7.16699C1.04199 6.82533 1.32533 6.54199 1.66699 6.54199H6.66699C7.00866 6.54199 7.29199 6.82533 7.29199 7.16699C7.29199 7.50866 7.00866 7.79199 6.66699 7.79199Z" fill="#4B5563"/>
<path d="M5.00033 10.292H1.66699C1.32533 10.292 1.04199 10.0087 1.04199 9.66699C1.04199 9.32533 1.32533 9.04199 1.66699 9.04199H5.00033C5.34199 9.04199 5.62533 9.32533 5.62533 9.66699C5.62533 10.0087 5.34199 10.292 5.00033 10.292Z" fill="#4B5563"/>
<path d="M3.33366 12.792H1.66699C1.32533 12.792 1.04199 12.5087 1.04199 12.167C1.04199 11.8253 1.32533 11.542 1.66699 11.542H3.33366C3.67533 11.542 3.95866 11.8253 3.95866 12.167C3.95866 12.5087 3.67533 12.792 3.33366 12.792Z" fill="#4B5563"/>
</svg>
