<svg width="10" height="16" viewBox="0 0 10 16" fill="none" xmlns="http://www.w3.org/2000/svg">
<path d="M6.64485 7.99966L6.2913 7.6461L1.02255 2.37736C1.02254 2.37734 1.02252 2.37732 1.0225 2.3773C0.816316 2.17103 0.700489 1.89131 0.700489 1.59966C0.700489 1.30803 0.816296 1.02834 1.02245 0.822065C1.02248 0.82203 1.02252 0.821994 1.02255 0.821958M6.64485 7.99966L1.02255 0.821958M6.64485 7.99966L6.2913 8.35321L1.02586 13.6187C0.82721 13.8258 0.717356 14.1025 0.71985 14.3896C0.722357 14.678 0.838042 14.9539 1.04199 15.1578C1.24594 15.3618 1.52183 15.4774 1.81025 15.48C2.09735 15.4824 2.374 15.3726 2.58115 15.1739L8.97774 8.77736C8.97776 8.77734 8.97777 8.77732 8.97779 8.7773C9.18398 8.57103 9.2998 8.29131 9.2998 7.99966C9.2998 7.70798 9.18396 7.42824 8.97774 7.22196L2.57785 0.822065M6.64485 7.99966L2.57785 0.822065M1.02255 0.821958C1.22882 0.615807 1.50852 0.5 1.80015 0.5C2.09183 0.5 2.37157 0.615847 2.57785 0.822065M1.02255 0.821958L2.57785 0.822065" fill="white" stroke="white"/>
</svg>
