<svg width="10" height="16" viewBox="0 0 10 16" fill="none" xmlns="http://www.w3.org/2000/svg">
<path d="M3.35515 7.99966L3.7087 7.6461L8.97745 2.37736C8.97746 2.37734 8.97748 2.37732 8.9775 2.3773C9.18368 2.17103 9.29951 1.89131 9.29951 1.59966C9.29951 1.30803 9.1837 1.02834 8.97755 0.822065C8.97752 0.82203 8.97748 0.821994 8.97745 0.821958M3.35515 7.99966L8.97745 0.821958M3.35515 7.99966L3.7087 8.35321L8.97414 13.6187C9.17279 13.8258 9.28264 14.1025 9.28015 14.3896C9.27764 14.678 9.16196 14.9539 8.95801 15.1578C8.75406 15.3618 8.47817 15.4774 8.18975 15.48C7.90265 15.4824 7.626 15.3726 7.41885 15.1739L1.02226 8.77736C1.02224 8.77734 1.02223 8.77732 1.02221 8.7773C0.816022 8.57103 0.700195 8.29131 0.700195 7.99966C0.700195 7.70798 0.816042 7.42824 1.02226 7.22196L7.42215 0.822065M3.35515 7.99966L7.42215 0.822065M8.97745 0.821958C8.77118 0.615807 8.49148 0.5 8.19985 0.5C7.90817 0.5 7.62843 0.615847 7.42215 0.822065M8.97745 0.821958L7.42215 0.822065" fill="white" stroke="white"/>
</svg>
