<svg width="41" height="40" viewBox="0 0 41 40" fill="none" xmlns="http://www.w3.org/2000/svg">
<g clipPath="url(#clip0_751_11182)">
<path d="M20.333 0L18.7705 20L20.333 40C31.3787 40 40.333 31.0457 40.333 20C40.333 8.9543 31.3787 0 20.333 0Z" fill="#FFC34D"/>
<path d="M0.333008 20C0.333008 31.0457 9.2873 40 20.333 40V0C9.2873 0 0.333008 8.9543 0.333008 20Z" fill="#FFE14D"/>
<path d="M20.333 2.34375L18.7705 20L20.333 37.6562C30.0843 37.6562 37.9893 29.7512 37.9893 20C37.9893 10.2487 30.0843 2.34375 20.333 2.34375Z" fill="#E6E6F2"/>
<path d="M27.3643 24.6875V15.3125H25.0205V18.8281H22.6768V15.3125H18.7705L20.333 24.6875H22.6768V21.1719H25.0205V24.6875H27.3643Z" fill="#5E3373"/>
<path d="M2.67676 20C2.67676 29.7512 10.5818 37.6562 20.333 37.6562V2.34375C10.5818 2.34375 2.67676 10.2487 2.67676 20Z" fill="#FFF5F5"/>
<path d="M13.3018 17.6562V20C14.1549 20 14.9557 19.7709 15.6455 19.3709V24.6875H17.9893V15.3125H15.6455C15.6455 16.6048 14.5941 17.6562 13.3018 17.6562Z" fill="#6D4D8C"/>
<path d="M19.1611 4.6875H21.5049V7.03125H19.1611V4.6875ZM25.8023 8.18336L26.9742 6.15367L29.0039 7.32555L27.832 9.35523L25.8023 8.18336ZM30.9775 12.5006L33.0072 11.3287L34.1791 13.3584L32.1494 14.5303L30.9775 12.5006ZM33.3018 18.8281H35.6455V21.1719H33.3018V18.8281ZM30.9776 27.4998L32.1495 25.4702L34.1792 26.642L33.0073 28.6717L30.9776 27.4998ZM25.8018 31.8166L27.8314 30.6448L29.0033 32.6744L26.9736 33.8463L25.8018 31.8166Z" fill="#5E3373"/>
<path d="M19.1611 32.9691H21.5049V35.3129H19.1611V32.9691ZM11.6611 32.6755L12.833 30.6458L14.8627 31.8177L13.6908 33.8474L11.6611 32.6755ZM6.48582 26.6411L8.51551 25.4693L9.68738 27.4989L7.6577 28.6708L6.48582 26.6411ZM5.02051 18.8285H7.36426V21.1722H5.02051V18.8285ZM6.48566 13.359L7.65754 11.3293L9.68723 12.5012L8.51535 14.5309L6.48566 13.359ZM11.6616 7.3252L13.6913 6.15332L14.8632 8.18301L12.8335 9.35488L11.6616 7.3252Z" fill="#6D4D8C"/>
</g>
<defs>
<clipPath id="clip0_751_11182">
<rect width="40" height="40" fill="white" transform="translate(0.333008)"/>
</clipPath>
</defs>
</svg>
