<svg width="41" height="32" viewBox="0 0 41 32" fill="none" xmlns="http://www.w3.org/2000/svg">
<path fill-rule="evenodd" clip-rule="evenodd" d="M20.589 11.121C19.5869 9.38497 22.7204 5.70161 27.5876 2.89083C32.4525 0.0823135 37.2107 -0.790265 38.2127 0.945751C38.7672 1.90692 39.3216 2.86809 39.8783 3.83153C40.8804 5.56528 37.7469 9.24864 32.8797 12.0594C28.0125 14.8679 23.2566 15.7405 22.2545 14.0068C21.7001 13.0433 21.1434 12.0822 20.589 11.121Z" fill="#FE9923"/>
<path fill-rule="evenodd" clip-rule="evenodd" d="M27.5876 2.89083C32.4525 0.0823135 37.2107 -0.790265 38.2127 0.945751C39.2148 2.6795 36.0813 6.36286 31.2141 9.17364C26.3469 11.9844 21.5911 12.8547 20.589 11.121C19.5869 9.38497 22.7204 5.70161 27.5876 2.89083Z" fill="#FECD3D"/>
<path fill-rule="evenodd" clip-rule="evenodd" d="M28.4347 4.35833C32.3067 2.12466 35.8764 1.0613 36.4104 1.9838C36.9444 2.90864 34.2382 5.4695 30.3661 7.70536C26.4942 9.9413 22.9222 11.0047 22.3904 10.0799C21.8565 9.15512 24.5628 6.59426 28.4347 4.35833Z" fill="#FEA832"/>
<path d="M37.8486 5.81719L38.7348 7.3532C38.9461 7.09414 39.137 6.83969 39.3006 6.58969L38.6007 5.38086L37.8486 5.81719ZM37.0896 9.05289C36.8701 9.24897 36.6466 9.44065 36.4193 9.62781L35.574 8.16219L36.3261 7.73047L37.0896 9.05289ZM34.5811 10.9934C34.3414 11.1567 34.099 11.3158 33.8539 11.4706L33.0473 10.0732L33.7994 9.64148L34.5811 10.9934ZM31.8839 12.6067C31.6225 12.7453 31.3636 12.8748 31.1068 13.0021L30.3228 11.6478L31.0771 11.2116L31.8839 12.6067ZM29.0049 13.9088C28.7292 14.0128 28.4511 14.1105 28.171 14.2019L27.4052 12.8795L28.1596 12.4455L29.0049 13.9088ZM25.876 14.7767C25.5465 14.8313 25.2306 14.8677 24.9329 14.8858L24.2354 13.677L24.9897 13.2407L25.876 14.7767Z" fill="#C85929"/>
<path fill-rule="evenodd" clip-rule="evenodd" d="M19.848 18.6531C20.85 16.9193 17.7166 13.2337 12.8494 10.4252C7.98448 7.61442 3.22628 6.7441 2.22425 8.47785C1.6698 9.43902 1.11542 10.4025 0.558702 11.3636C-0.443408 13.0974 2.69011 16.783 7.5573 19.5915C12.4245 22.4023 17.1804 23.2726 18.1825 21.5389C18.7391 20.5778 19.2935 19.6143 19.848 18.6531Z" fill="#FE9923"/>
<path fill-rule="evenodd" clip-rule="evenodd" d="M12.8491 10.4252C7.98418 7.61442 3.22598 6.7441 2.22395 8.47785C1.22418 10.2139 4.35762 13.8972 9.22254 16.7057C14.0897 19.5165 18.8479 20.3868 19.8477 18.6531C20.8498 16.9193 17.7163 13.2337 12.8491 10.4252Z" fill="#FECD3D"/>
<path fill-rule="evenodd" clip-rule="evenodd" d="M12.0019 11.8938C8.13221 9.65783 4.56018 8.59447 4.02619 9.51923C3.49221 10.4418 6.19846 13.0049 10.0704 15.2385C13.9424 17.4745 17.5144 18.5378 18.0484 17.6131C18.5801 16.6906 15.8738 14.1297 12.0019 11.8938Z" fill="#FEA832"/>
<path d="M2.58738 13.3504L1.70121 14.8864C1.48988 14.6273 1.30129 14.3729 1.1377 14.1252L1.83527 12.9141L2.58738 13.3504ZM3.34629 16.5861C3.56585 16.7822 3.78933 16.9739 4.0166 17.161L4.86184 15.6977L4.10973 15.2637L3.34629 16.5861ZM5.85488 18.5289C6.09545 18.6911 6.33861 18.8494 6.58426 19.0038L7.3909 17.6064L6.63652 17.1747L5.85488 18.5289ZM8.55207 20.1422C8.80982 20.2773 9.06967 20.4083 9.33152 20.5353L10.1132 19.181L9.35879 18.7448L8.55207 20.1422ZM11.4333 21.442C11.7088 21.5467 11.9868 21.6444 12.2672 21.7351L13.0307 20.4127L12.2764 19.9809L11.4333 21.442ZM14.56 22.3122C14.8918 22.3645 15.2053 22.4008 15.5029 22.419L16.2005 21.2102L15.4484 20.7739L14.56 22.3122Z" fill="#C85929"/>
<path fill-rule="evenodd" clip-rule="evenodd" d="M19.1459 28.1672C18.1461 26.4334 21.2773 22.7501 26.1445 19.9393C31.0117 17.1308 35.7677 16.2582 36.7697 17.992C37.3253 18.9537 37.8804 19.9156 38.4352 20.8777C39.4373 22.6138 36.3038 26.2971 31.4389 29.1079C26.5717 31.9164 21.8135 32.789 20.8115 31.053C20.2567 30.0908 19.7015 29.1289 19.1459 28.1672Z" fill="#FE9923"/>
<path fill-rule="evenodd" clip-rule="evenodd" d="M26.1445 19.9393C31.0117 17.1308 35.7677 16.2582 36.7697 17.992C37.7718 19.728 34.6383 23.4113 29.7711 26.2221C24.9062 29.0306 20.148 29.9032 19.1459 28.1672C18.1461 26.4335 21.2773 22.7502 26.1445 19.9393Z" fill="#FECD3D"/>
<path fill-rule="evenodd" clip-rule="evenodd" d="M26.9923 21.4075C30.8643 19.1716 34.4363 18.1104 34.9681 19.033C35.502 19.9577 32.7958 22.5186 28.9238 24.7545C25.0518 26.9882 21.482 28.0516 20.948 27.1291C20.4141 26.2042 23.1204 23.6434 26.9923 21.4075Z" fill="#FEA832"/>
<path d="M36.4059 22.8659L37.2944 24.402C37.4949 24.1571 37.6829 23.9023 37.8579 23.6385L37.1603 22.4297L36.4059 22.8659ZM35.6492 26.0994C35.4294 26.2961 35.2052 26.4878 34.9766 26.6743L34.1313 25.2109L34.8857 24.7792L35.6492 26.0994ZM33.1406 28.0422C32.8999 28.2049 32.6568 28.364 32.4112 28.5194L31.6046 27.122L32.359 26.688L33.1406 28.0422ZM30.4412 29.6555C30.1842 29.7906 29.9251 29.9216 29.6641 30.0486L28.8823 28.6943L29.6345 28.258L30.4412 29.6555ZM27.5622 30.9575C27.2859 31.0598 27.0079 31.1576 26.7283 31.2506L25.9648 29.9259L26.7169 29.4941L27.5622 30.9575ZM24.4355 31.8255C24.1037 31.8801 23.7879 31.9141 23.4925 31.9323L22.7949 30.7235L23.547 30.2873L24.4355 31.8255Z" fill="#C85929"/>
<path d="M17.1939 4.125V5.41797H18.4868V6.54047H17.1939V7.83562H16.0714V6.54047H14.7762V5.41797H16.0714V4.125H17.1939ZM13.1947 24.8641V26.157H14.4898V27.2795H13.1947V28.5747H12.0722V27.2795H10.7793V26.157H12.0722V24.8641H13.1947ZM38.9987 12.1825V13.4754H40.2938V14.598H38.9987V15.8931H37.8761V14.598H36.5832V13.4754H37.8761V12.1825H38.9987Z" fill="#FEA832"/>
</svg>
