<svg width="29" height="40" viewBox="0 0 29 40" fill="none" xmlns="http://www.w3.org/2000/svg">
<path fill-rule="evenodd" clip-rule="evenodd" d="M14.1233 39.9993C9.75925 39.9993 5.75728 37.8688 3.14352 34.1542C-2.01064 26.829 3.39852 14.731 3.63102 14.2193C3.81946 13.8047 4.43516 13.8788 4.5186 14.3283C4.67634 15.1812 5.22126 17.2083 6.10369 18.2368C6.05095 15.1721 6.46955 5.92148 12.9592 0.11997C13.1832 -0.080187 13.6836 -0.0738588 13.7465 0.502003C13.9154 2.06013 14.6835 7.25437 17.4747 8.67094C17.7491 8.81063 20.3479 12.0884 20.8007 15.1301C21.2561 14.5383 21.8866 13.2617 22.1746 10.583C22.2175 10.1841 22.7118 10.0209 22.9846 10.3142C23.0833 10.4203 32.7679 21.0741 26.0149 32.8794C23.4648 37.3382 19.0194 39.9993 14.1231 39.9993H14.1233Z" fill="#FFA725"/>
<path fill-rule="evenodd" clip-rule="evenodd" d="M14.8495 36.6989C17.4365 36.6989 19.8089 35.4361 21.3583 33.2341C24.4136 28.8916 21.2072 21.7201 21.0693 21.4169C20.9575 21.171 20.5926 21.2151 20.5432 21.4816C20.4496 21.9871 20.1267 23.1887 19.6035 23.7984C19.6347 21.9815 19.3868 16.498 15.5397 13.0588C15.4068 12.9402 15.1103 12.9439 15.0731 13.2852C14.9728 14.2089 14.5176 17.2879 12.8629 18.1276C12.7002 18.2104 11.1597 20.1536 10.8911 21.9566C10.6211 21.6058 10.2473 20.849 10.0766 19.2611C10.0511 19.0246 9.75812 18.9278 9.59663 19.1017C9.53804 19.1647 3.79724 25.4802 7.80038 32.4782C9.3121 35.1213 11.9472 36.6989 14.8499 36.6989H14.8495Z" fill="#FF871E"/>
<path fill-rule="evenodd" clip-rule="evenodd" d="M10.9311 33.9769C10.5179 33.9769 10.3032 33.4725 10.5997 33.1765L18.1018 25.6741C18.5389 25.237 19.2013 25.9012 18.7651 26.3372L11.2627 33.8395C11.2192 33.8832 11.1675 33.9178 11.1106 33.9413C11.0537 33.9649 10.9927 33.977 10.9311 33.9769ZM12.3017 29.3477C9.71022 29.3477 9.70858 25.4053 12.3012 25.4053C14.8941 25.4053 14.893 29.3477 12.3017 29.3477ZM12.3017 26.3421C11.3865 26.3421 10.9203 27.4563 11.5705 28.1069C12.5162 29.0529 14.0075 27.6206 13.0327 26.6451C12.8375 26.4494 12.578 26.3421 12.3017 26.3421ZM17.0626 34.1084C14.4709 34.1084 14.4697 30.1662 17.0626 30.1662C19.6553 30.1662 19.655 34.1084 17.0626 34.1084ZM17.0626 31.103C16.1471 31.103 15.6814 32.2172 16.3316 32.8678C17.277 33.814 18.7684 32.381 17.7938 31.406C17.5986 31.2103 17.3387 31.103 17.0626 31.103Z" fill="white"/>
</svg>
