<svg width="40" height="40" viewBox="0 0 40 40" fill="none" xmlns="http://www.w3.org/2000/svg">
<g clipPath="url(#clip0_753_11364)">
<g clipPath="url(#clip1_753_11364)">
<path d="M11.8469 38.0375L15.685 26.1144H4.9181C4.63522 26.1143 4.35635 26.0474 4.10424 25.9191C3.85212 25.7907 3.63389 25.6047 3.46732 25.376C3.30075 25.1474 3.19057 24.8826 3.14574 24.6033C3.10091 24.324 3.12271 24.038 3.20935 23.7687L10.455 1.24563C10.5714 0.883809 10.7996 0.568268 11.1068 0.344426C11.414 0.120584 11.7843 -1.19318e-05 12.1644 6.43599e-08H21.6231C21.906 -7.56778e-05 22.185 0.0667027 22.4372 0.194892C22.6894 0.323081 22.9077 0.509054 23.0744 0.737651C23.2411 0.966247 23.3514 1.231 23.3964 1.51033C23.4414 1.78965 23.4197 2.07565 23.3331 2.345L19.6394 13.84H31.1737C32.6387 13.84 33.4756 15.5125 32.5969 16.6844L14.4281 39.4237C13.395 40.7163 11.3394 39.6125 11.8469 38.0375Z" fill="#FBB03A"/>
<path d="M32.5946 16.6891L14.4346 39.4228C13.3946 40.7159 11.3408 39.6091 11.8477 38.0353L14.7277 29.0891C20.1008 26.1028 23.8521 19.9966 23.3183 13.8359H31.1677C32.6346 13.8359 33.4739 15.5159 32.5946 16.6891Z" fill="black" fill-opacity="0.063"/>
<path d="M28.6039 22.5567L29.7227 23.3692C29.9852 23.5605 30.3014 23.663 30.6264 23.663H32.0083C32.6752 23.663 33.2652 24.0923 33.4714 24.7255L33.8983 26.0405C33.9983 26.3492 34.1945 26.6186 34.457 26.8092L35.5758 27.6217C35.8385 27.8127 36.034 28.082 36.1343 28.391C36.2346 28.7 36.2344 29.0328 36.1339 29.3417L35.707 30.6567C35.6068 30.9654 35.6068 31.298 35.707 31.6067L36.1339 32.9217C36.2344 33.2307 36.2344 33.5635 36.134 33.8725C36.0337 34.1815 35.838 34.4508 35.5752 34.6417L34.457 35.4542C34.1945 35.6448 33.9989 35.9142 33.8983 36.223L33.4714 37.5373C33.3711 37.8463 33.1756 38.1155 32.9129 38.3065C32.6502 38.4974 32.3337 38.6004 32.0089 38.6005H30.6264C30.3015 38.6003 29.9849 38.7032 29.722 38.8942L28.6039 39.7067C28.3412 39.8977 28.0247 40.0006 27.6999 40.0006C27.375 40.0006 27.0585 39.8977 26.7958 39.7067L25.6777 38.8942C25.415 38.7033 25.0986 38.6005 24.7739 38.6005H23.3914C23.0667 38.6004 22.7503 38.4976 22.4876 38.3067C22.2249 38.1159 22.0293 37.8468 21.9289 37.538L21.5014 36.223C21.401 35.9141 21.2054 35.645 20.9427 35.4542L19.8245 34.6417C19.5617 34.4508 19.3661 34.1815 19.2657 33.8725C19.1653 33.5635 19.1653 33.2307 19.2658 32.9217L19.6927 31.6073C19.7933 31.298 19.7933 30.9655 19.6927 30.6567L19.2658 29.3417C19.1655 29.0328 19.1655 28.7001 19.2659 28.3913C19.3663 28.0824 19.5618 27.8132 19.8245 27.6223L20.9433 26.8098C21.2058 26.6186 21.4014 26.3492 21.5014 26.0411L21.9289 24.7261C22.0293 24.4173 22.2249 24.1482 22.4876 23.9573C22.7503 23.7664 23.0667 23.6636 23.3914 23.6636H24.7739C25.0986 23.6636 25.415 23.5607 25.6777 23.3698L26.7964 22.5573C27.0591 22.3665 27.3755 22.2637 27.7002 22.2637C28.0249 22.2637 28.3412 22.3658 28.6039 22.5567Z" fill="#723881"/>
<path d="M25.3939 36.0229C25.2858 36.0229 25.1764 35.9973 25.0752 35.9411C24.9982 35.8994 24.9302 35.8429 24.8751 35.7748C24.82 35.7068 24.7789 35.6285 24.7542 35.5445C24.7296 35.4605 24.7217 35.3724 24.7312 35.2854C24.7407 35.1983 24.7673 35.114 24.8095 35.0373L29.4227 26.5873C29.6002 26.2617 30.0039 26.1429 30.3264 26.321C30.6508 26.4973 30.7689 26.9023 30.592 27.2248L25.9789 35.6754C25.9218 35.7807 25.8373 35.8687 25.7343 35.9298C25.6313 35.991 25.5137 36.0232 25.3939 36.0229ZM25.4708 27.0067C25.3356 27.0067 25.2017 27.0333 25.0769 27.085C24.952 27.1368 24.8385 27.2126 24.7429 27.3082C24.6473 27.4038 24.5715 27.5172 24.5198 27.6421C24.468 27.767 24.4414 27.9009 24.4414 28.0361C24.4414 28.1712 24.468 28.3051 24.5198 28.43C24.5715 28.5549 24.6473 28.6683 24.7429 28.7639C24.8385 28.8595 24.952 28.9353 25.0769 28.9871C25.2017 29.0388 25.3356 29.0654 25.4708 29.0654C25.7438 29.0654 26.0056 28.957 26.1987 28.7639C26.3917 28.5709 26.5002 28.3091 26.5002 28.0361C26.5002 27.763 26.3917 27.5012 26.1987 27.3082C26.0056 27.1151 25.7438 27.0067 25.4708 27.0067ZM29.9308 33.1967C29.6577 33.1967 29.3958 33.3052 29.2027 33.4983C29.0096 33.6914 28.9011 33.9533 28.9011 34.2264C28.9011 34.4995 29.0096 34.7614 29.2027 34.9545C29.3958 35.1476 29.6577 35.2561 29.9308 35.2561C30.2039 35.2561 30.4658 35.1476 30.6589 34.9545C30.852 34.7614 30.9605 34.4995 30.9605 34.2264C30.9605 33.9533 30.852 33.6914 30.6589 33.4983C30.4658 33.3052 30.2039 33.1967 29.9308 33.1967Z" fill="#F0F0FC"/>
</g>
</g>
<defs>
<clipPath id="clip0_753_11364">
<rect width="40" height="40" fill="white"/>
</clipPath>
<clipPath id="clip1_753_11364">
<rect width="40" height="40" fill="white" transform="translate(-0.333984)"/>
</clipPath>
</defs>
</svg>
